<svg id="pcb-stackup_bottom" version="1.1" xmlns:xlink="http://www.w3.org/1999/xlink" stroke-linecap="round" stroke-linejoin="round" stroke-width="0" fill-rule="evenodd" clip-rule="evenodd" viewBox="165735 -52705 16510 21590" width="16.51mm" height="21.59mm" xmlns="http://www.w3.org/2000/svg"><defs><style>.pcb-stackup_fr4 {color: #4D542C;}
.pcb-stackup_cu {color: lightgrey;}
.pcb-stackup_cf {color: goldenrod;}
.pcb-stackup_sm {color: #004400; opacity: 0.9;}
.pcb-stackup_ss {color: white;}
.pcb-stackup_sp {color: #000000; opacity: 0;}
.pcb-stackup_out {color: black;}</style><rect x="-850" y="-850" width="1700" height="1700" id="Un7AAB1plgKV_pad-10"/><rect x="-850" y="-850" width="1700" height="1700" rx="850" ry="850" id="Un7AAB1plgKV_pad-11"/><circle cx="0" cy="0" r="225" id="Un7AAB1plgKV_pad-12"/><rect x="-850" y="-850" width="1700" height="1700" id="Un7AAB1plgKV_pad-10"/><rect x="-850" y="-850" width="1700" height="1700" rx="850" ry="850" id="Un7AAB1plgKV_pad-11"/><circle cx="0" cy="0" r="225" id="Un7AAB1plgKV_pad-12"/><rect x="-1050" y="-1050" width="2100" height="2100" id="R7ukWGPKC1Xm_pad-10"/><rect x="-1050" y="-1050" width="2100" height="2100" rx="1050" ry="1050" id="R7ukWGPKC1Xm_pad-11"/><rect x="-850" y="-850" width="1700" height="1700" id="Un7AAB1plgKV_pad-10"/><rect x="-850" y="-850" width="1700" height="1700" rx="850" ry="850" id="Un7AAB1plgKV_pad-11"/><circle cx="0" cy="0" r="225" id="Un7AAB1plgKV_pad-12"/><rect x="-850" y="-850" width="1700" height="1700" id="Un7AAB1plgKV_pad-10"/><rect x="-850" y="-850" width="1700" height="1700" rx="850" ry="850" id="Un7AAB1plgKV_pad-11"/><circle cx="0" cy="0" r="225" id="Un7AAB1plgKV_pad-12"/><rect x="-1050" y="-1050" width="2100" height="2100" id="R7ukWGPKC1Xm_pad-10"/><rect x="-1050" y="-1050" width="2100" height="2100" rx="1050" ry="1050" id="R7ukWGPKC1Xm_pad-11"/><rect x="-850" y="-850" width="1700" height="1700" id="Un7AAB1plgKV_pad-10"/><rect x="-850" y="-850" width="1700" height="1700" rx="850" ry="850" id="Un7AAB1plgKV_pad-11"/><circle cx="0" cy="0" r="225" id="Un7AAB1plgKV_pad-12"/><rect x="-850" y="-850" width="1700" height="1700" id="Un7AAB1plgKV_pad-10"/><rect x="-850" y="-850" width="1700" height="1700" rx="850" ry="850" id="Un7AAB1plgKV_pad-11"/><circle cx="0" cy="0" r="225" id="Un7AAB1plgKV_pad-12"/><rect x="-1050" y="-1050" width="2100" height="2100" id="R7ukWGPKC1Xm_pad-10"/><rect x="-1050" y="-1050" width="2100" height="2100" rx="1050" ry="1050" id="R7ukWGPKC1Xm_pad-11"/><rect x="-850" y="-850" width="1700" height="1700" id="Un7AAB1plgKV_pad-10"/><rect x="-850" y="-850" width="1700" height="1700" rx="850" ry="850" id="Un7AAB1plgKV_pad-11"/><circle cx="0" cy="0" r="225" id="Un7AAB1plgKV_pad-12"/><rect x="-850" y="-850" width="1700" height="1700" id="Un7AAB1plgKV_pad-10"/><rect x="-850" y="-850" width="1700" height="1700" rx="850" ry="850" id="Un7AAB1plgKV_pad-11"/><circle cx="0" cy="0" r="225" id="Un7AAB1plgKV_pad-12"/><rect x="-1050" y="-1050" width="2100" height="2100" id="R7ukWGPKC1Xm_pad-10"/><rect x="-1050" y="-1050" width="2100" height="2100" rx="1050" ry="1050" id="R7ukWGPKC1Xm_pad-11"/><circle cx="0" cy="0" r="150" id="prg-1EIIk5F6_pad-1"/><circle cx="0" cy="0" r="500" id="prg-1EIIk5F6_pad-2"/><rect x="-850" y="-850" width="1700" height="1700" id="Un7AAB1plgKV_pad-10"/><rect x="-850" y="-850" width="1700" height="1700" rx="850" ry="850" id="Un7AAB1plgKV_pad-11"/><circle cx="0" cy="0" r="225" id="Un7AAB1plgKV_pad-12"/><rect x="-850" y="-850" width="1700" height="1700" id="Un7AAB1plgKV_pad-10"/><rect x="-850" y="-850" width="1700" height="1700" rx="850" ry="850" id="Un7AAB1plgKV_pad-11"/><circle cx="0" cy="0" r="225" id="Un7AAB1plgKV_pad-12"/><rect x="-1050" y="-1050" width="2100" height="2100" id="R7ukWGPKC1Xm_pad-10"/><rect x="-1050" y="-1050" width="2100" height="2100" rx="1050" ry="1050" id="R7ukWGPKC1Xm_pad-11"/><rect x="-850" y="-850" width="1700" height="1700" id="Un7AAB1plgKV_pad-10"/><rect x="-850" y="-850" width="1700" height="1700" rx="850" ry="850" id="Un7AAB1plgKV_pad-11"/><circle cx="0" cy="0" r="225" id="Un7AAB1plgKV_pad-12"/><rect x="-850" y="-850" width="1700" height="1700" id="Un7AAB1plgKV_pad-10"/><rect x="-850" y="-850" width="1700" height="1700" rx="850" ry="850" id="Un7AAB1plgKV_pad-11"/><circle cx="0" cy="0" r="225" id="Un7AAB1plgKV_pad-12"/><rect x="-1050" y="-1050" width="2100" height="2100" id="R7ukWGPKC1Xm_pad-10"/><rect x="-1050" y="-1050" width="2100" height="2100" rx="1050" ry="1050" id="R7ukWGPKC1Xm_pad-11"/><rect x="-850" y="-850" width="1700" height="1700" id="Un7AAB1plgKV_pad-10"/><rect x="-850" y="-850" width="1700" height="1700" rx="850" ry="850" id="Un7AAB1plgKV_pad-11"/><circle cx="0" cy="0" r="225" id="Un7AAB1plgKV_pad-12"/><rect x="-850" y="-850" width="1700" height="1700" id="Un7AAB1plgKV_pad-10"/><rect x="-850" y="-850" width="1700" height="1700" rx="850" ry="850" id="Un7AAB1plgKV_pad-11"/><circle cx="0" cy="0" r="225" id="Un7AAB1plgKV_pad-12"/><rect x="-1050" y="-1050" width="2100" height="2100" id="R7ukWGPKC1Xm_pad-10"/><rect x="-1050" y="-1050" width="2100" height="2100" rx="1050" ry="1050" id="R7ukWGPKC1Xm_pad-11"/><rect x="-850" y="-850" width="1700" height="1700" id="Un7AAB1plgKV_pad-10"/><rect x="-850" y="-850" width="1700" height="1700" rx="850" ry="850" id="Un7AAB1plgKV_pad-11"/><circle cx="0" cy="0" r="225" id="Un7AAB1plgKV_pad-12"/><rect x="-850" y="-850" width="1700" height="1700" id="Un7AAB1plgKV_pad-10"/><rect x="-850" y="-850" width="1700" height="1700" rx="850" ry="850" id="Un7AAB1plgKV_pad-11"/><circle cx="0" cy="0" r="225" id="Un7AAB1plgKV_pad-12"/><rect x="-1050" y="-1050" width="2100" height="2100" id="R7ukWGPKC1Xm_pad-10"/><rect x="-1050" y="-1050" width="2100" height="2100" rx="1050" ry="1050" id="R7ukWGPKC1Xm_pad-11"/><circle cx="0" cy="0" r="150" id="prg-1EIIk5F6_pad-1"/><circle cx="0" cy="0" r="500" id="prg-1EIIk5F6_pad-2"/><g id="pcb-stackup_bottom_cu"><use xlink:href="#Un7AAB1plgKV_pad-10" x="180340" y="-33020"/><use xlink:href="#Un7AAB1plgKV_pad-11" x="180340" y="-35560"/><use xlink:href="#Un7AAB1plgKV_pad-11" x="180340" y="-38100"/><use xlink:href="#Un7AAB1plgKV_pad-11" x="180340" y="-40640"/><use xlink:href="#Un7AAB1plgKV_pad-11" x="180340" y="-43180"/><use xlink:href="#Un7AAB1plgKV_pad-11" x="180340" y="-45720"/><use xlink:href="#Un7AAB1plgKV_pad-11" x="180340" y="-48260"/><use xlink:href="#Un7AAB1plgKV_pad-11" x="180340" y="-50800"/><use xlink:href="#Un7AAB1plgKV_pad-11" x="167640" y="-50800"/><use xlink:href="#Un7AAB1plgKV_pad-11" x="167640" y="-48260"/><use xlink:href="#Un7AAB1plgKV_pad-11" x="167640" y="-45720"/><use xlink:href="#Un7AAB1plgKV_pad-11" x="167640" y="-43180"/><use xlink:href="#Un7AAB1plgKV_pad-11" x="167640" y="-40640"/><use xlink:href="#Un7AAB1plgKV_pad-11" x="167640" y="-38100"/><use xlink:href="#Un7AAB1plgKV_pad-11" x="167640" y="-35560"/><use xlink:href="#Un7AAB1plgKV_pad-10" x="167640" y="-33020"/><use xlink:href="#Un7AAB1plgKV_pad-12" x="177038" y="-51054"/><use xlink:href="#Un7AAB1plgKV_pad-12" x="170180" y="-49784"/><use xlink:href="#Un7AAB1plgKV_pad-12" x="172466" y="-44831"/><use xlink:href="#Un7AAB1plgKV_pad-12" x="171450" y="-46482"/><use xlink:href="#Un7AAB1plgKV_pad-12" x="173736" y="-49276"/><use xlink:href="#Un7AAB1plgKV_pad-12" x="173736" y="-50165"/><use xlink:href="#Un7AAB1plgKV_pad-12" x="178700" y="-49100"/><use xlink:href="#Un7AAB1plgKV_pad-12" x="174100" y="-47100"/><use xlink:href="#Un7AAB1plgKV_pad-12" x="177700" y="-48600"/><use xlink:href="#Un7AAB1plgKV_pad-12" x="174100" y="-48000"/><path d="M 175768 -49276 178435 -46609 M 173736 -49276 175768 -49276 M 178435 -46609 178435 -40005 179490.001 -38949.999 180340 -38100 M 175387 -50165 178816 -46736 M 173736 -50165 175387 -50165 M 178816 -46736 178816 -42164 179490.001 -41489.999 180340 -40640 M 181610 -44450 181610 -46355 M 178700 -48781.802 178700 -49100 M 180975 -46990 179991.82 -46990 178700 -48281.82 178700 -48781.802 M 180340 -43180 181610 -44450 M 181610 -46355 180975 -46990 M 167640 -48260 172940 -48260 173875.001 -47324.999 174100 -47100 M 180340 -45720 177700 -48360 177700 -48600 M 171300 -50800 173875.001 -48224.999 174100 -48000 M 167640 -50800 171300 -50800" fill="none" stroke-width="177.8"/><path d="M 177528.185 -49459.85 177870.314 -49460.149 177911.293 -49443.217 177970.503 -49586.514 178212.213 -49828.647 178528.185 -49959.85 178870.314 -49960.149 179186.514 -49829.497 179250.134 -49765.988 178938.946 -50231.715 178825.907 -50800 178938.946 -51368.285 179260.853 -51850.054 179477.781 -51995 168502.219 -51995 168719.147 -51850.054 168937.076 -51523.9 171299.995 -51523.9 171300 -51523.901 171531.063 -51477.939 171577.025 -51468.796 171811.875 -51311.875 172875.927 -50247.822 172875.851 -50335.314 173006.503 -50651.514 173248.213 -50893.647 173564.185 -51024.85 173906.314 -51025.149 174222.514 -50894.497 174228.121 -50888.9 175386.995 -50888.9 175387 -50888.901 175618.063 -50842.939 175664.025 -50833.796 175898.875 -50676.875 177236.866 -49338.884 177528.185 -49459.85 177528.185 -49459.85"/><path d="M 177528.185 -49459.85 177870.314 -49460.149 177911.293 -49443.217 177970.503 -49586.514 178212.213 -49828.647 178528.185 -49959.85 178870.314 -49960.149 179186.514 -49829.497 179250.134 -49765.988 178938.946 -50231.715 178825.907 -50800 178938.946 -51368.285 179260.853 -51850.054 179477.781 -51995 168502.219 -51995 168719.147 -51850.054 168937.076 -51523.9 171299.995 -51523.9 171300 -51523.901 171531.063 -51477.939 171577.025 -51468.796 171811.875 -51311.875 172875.927 -50247.822 172875.851 -50335.314 173006.503 -50651.514 173248.213 -50893.647 173564.185 -51024.85 173906.314 -51025.149 174222.514 -50894.497 174228.121 -50888.9 175386.995 -50888.9 175387 -50888.901 175618.063 -50842.939 175664.025 -50833.796 175898.875 -50676.875 177236.866 -49338.884 177528.185 -49459.85" fill="none" stroke-width="254"/><path d="M 171000.15 -50076.1 168937.076 -50076.1 168719.147 -49749.946 168389.974 -49530 168719.147 -49310.054 168937.076 -48983.9 172092.351 -48983.9 171000.15 -50076.1 171000.15 -50076.1"/><path d="M 171000.15 -50076.1 168937.076 -50076.1 168719.147 -49749.946 168389.974 -49530 168719.147 -49310.054 168937.076 -48983.9 172092.351 -48983.9 171000.15 -50076.1" fill="none" stroke-width="254"/><path d="M 178891.843 -31922.235 178842.56 -32170 178842.56 -33870 178891.843 -34117.765 179032.191 -34327.809 179242.235 -34468.157 179304.777 -34480.597 179260.853 -34509.946 178938.946 -34991.715 178825.907 -35560 178938.946 -36128.285 179260.853 -36610.054 179590.026 -36830 179260.853 -37049.946 178938.946 -37531.715 178825.907 -38100 178907.26 -38508.991 177923.125 -39493.125 177766.204 -39727.975 177766.204 -39727.976 177711.099 -40005 177711.1 -40005.005 177711.1 -46309.151 175468.15 -48552.1 174764.221 -48552.1 174828.647 -48487.787 174959.85 -48171.815 174960.149 -47829.686 174844.461 -47549.702 174959.85 -47271.815 174960.149 -46929.686 174829.497 -46613.486 174587.787 -46371.353 174271.815 -46240.15 173929.686 -46239.851 173613.486 -46370.503 173371.353 -46612.213 173240.15 -46928.185 173240.143 -46936.107 172640.15 -47536.1 168937.076 -47536.1 168719.147 -47209.946 168389.974 -46990 168719.147 -46770.054 169041.054 -46288.285 169154.093 -45720 169041.054 -45151.715 168719.147 -44669.946 168389.974 -44450 168719.147 -44230.054 169041.054 -43748.285 169154.093 -43180 169041.054 -42611.715 168719.147 -42129.946 168389.974 -41910 168719.147 -41690.054 169041.054 -41208.285 169154.093 -40640 169041.054 -40071.715 168719.147 -39589.946 168389.974 -39370 168719.147 -39150.054 169041.054 -38668.285 169154.093 -38100 169041.054 -37531.715 168719.147 -37049.946 168389.974 -36830 168719.147 -36610.054 169041.054 -36128.285 169154.093 -35560 169041.054 -34991.715 168719.147 -34509.946 168675.223 -34480.597 168849.698 -34408.327 169028.327 -34229.699 169125 -33996.31 169125 -33305.75 168966.25 -33147 167767 -33147 167767 -33167 167513 -33167 167513 -33147 167493 -33147 167493 -32893 167513 -32893 167513 -32873 167767 -32873 167767 -32893 168966.25 -32893 169125 -32734.25 169125 -32043.69 169034.416 -31825 178956.814 -31825 178891.843 -31922.235 178891.843 -31922.235"/><path d="M 178891.843 -31922.235 178842.56 -32170 178842.56 -33870 178891.843 -34117.765 179032.191 -34327.809 179242.235 -34468.157 179304.777 -34480.597 179260.853 -34509.946 178938.946 -34991.715 178825.907 -35560 178938.946 -36128.285 179260.853 -36610.054 179590.026 -36830 179260.853 -37049.946 178938.946 -37531.715 178825.907 -38100 178907.26 -38508.991 177923.125 -39493.125 177766.204 -39727.975 177766.204 -39727.976 177711.099 -40005 177711.1 -40005.005 177711.1 -46309.151 175468.15 -48552.1 174764.221 -48552.1 174828.647 -48487.787 174959.85 -48171.815 174960.149 -47829.686 174844.461 -47549.702 174959.85 -47271.815 174960.149 -46929.686 174829.497 -46613.486 174587.787 -46371.353 174271.815 -46240.15 173929.686 -46239.851 173613.486 -46370.503 173371.353 -46612.213 173240.15 -46928.185 173240.143 -46936.107 172640.15 -47536.1 168937.076 -47536.1 168719.147 -47209.946 168389.974 -46990 168719.147 -46770.054 169041.054 -46288.285 169154.093 -45720 169041.054 -45151.715 168719.147 -44669.946 168389.974 -44450 168719.147 -44230.054 169041.054 -43748.285 169154.093 -43180 169041.054 -42611.715 168719.147 -42129.946 168389.974 -41910 168719.147 -41690.054 169041.054 -41208.285 169154.093 -40640 169041.054 -40071.715 168719.147 -39589.946 168389.974 -39370 168719.147 -39150.054 169041.054 -38668.285 169154.093 -38100 169041.054 -37531.715 168719.147 -37049.946 168389.974 -36830 168719.147 -36610.054 169041.054 -36128.285 169154.093 -35560 169041.054 -34991.715 168719.147 -34509.946 168675.223 -34480.597 168849.698 -34408.327 169028.327 -34229.699 169125 -33996.31 169125 -33305.75 168966.25 -33147 167767 -33147 167767 -33167 167513 -33167 167513 -33147 167493 -33147 167493 -32893 167513 -32893 167513 -32873 167767 -32873 167767 -32893 168966.25 -32893 169125 -32734.25 169125 -32043.69 169034.416 -31825 178956.814 -31825 178891.843 -31922.235" fill="none" stroke-width="254"/></g><g id="pcb-stackup_bottom_sm"><use xlink:href="#R7ukWGPKC1Xm_pad-10" x="180340" y="-33020"/><use xlink:href="#R7ukWGPKC1Xm_pad-11" x="180340" y="-35560"/><use xlink:href="#R7ukWGPKC1Xm_pad-11" x="180340" y="-38100"/><use xlink:href="#R7ukWGPKC1Xm_pad-11" x="180340" y="-40640"/><use xlink:href="#R7ukWGPKC1Xm_pad-11" x="180340" y="-43180"/><use xlink:href="#R7ukWGPKC1Xm_pad-11" x="180340" y="-45720"/><use xlink:href="#R7ukWGPKC1Xm_pad-11" x="180340" y="-48260"/><use xlink:href="#R7ukWGPKC1Xm_pad-11" x="180340" y="-50800"/><use xlink:href="#R7ukWGPKC1Xm_pad-11" x="167640" y="-50800"/><use xlink:href="#R7ukWGPKC1Xm_pad-11" x="167640" y="-48260"/><use xlink:href="#R7ukWGPKC1Xm_pad-11" x="167640" y="-45720"/><use xlink:href="#R7ukWGPKC1Xm_pad-11" x="167640" y="-43180"/><use xlink:href="#R7ukWGPKC1Xm_pad-11" x="167640" y="-40640"/><use xlink:href="#R7ukWGPKC1Xm_pad-11" x="167640" y="-38100"/><use xlink:href="#R7ukWGPKC1Xm_pad-11" x="167640" y="-35560"/><use xlink:href="#R7ukWGPKC1Xm_pad-10" x="167640" y="-33020"/></g><g id="pcb-stackup_bottom_ss"><path d="M 176732.857 -36316.285 176561.428 -36373.428 176504.285 -36430.571 176447.142 -36544.857 176447.142 -36716.285 176504.285 -36830.571 176561.428 -36887.714 176675.714 -36944.857 177132.857 -36944.857 177132.857 -35744.857 176732.857 -35744.857 176618.571 -35802 176561.428 -35859.142 176504.285 -35973.428 176504.285 -36087.714 176561.428 -36202 176618.571 -36259.142 176732.857 -36316.285 177132.857 -36316.285 M 175532.857 -36316.285 175361.428 -36373.428 175304.285 -36430.571 175247.142 -36544.857 175247.142 -36716.285 175304.285 -36830.571 175361.428 -36887.714 175475.714 -36944.857 175932.857 -36944.857 175932.857 -35744.857 175532.857 -35744.857 175418.571 -35802 175361.428 -35859.142 175304.285 -35973.428 175304.285 -36087.714 175361.428 -36202 175418.571 -36259.142 175532.857 -36316.285 175932.857 -36316.285 M 173018.571 -37059.142 173132.857 -37002 173247.142 -36887.714 173418.571 -36716.285 173532.857 -36659.142 173647.142 -36659.142 M 173590 -36944.857 173704.285 -36887.714 173818.571 -36773.428 173875.714 -36544.857 173875.714 -36144.857 173818.571 -35916.285 173704.285 -35802 173590 -35744.857 173361.428 -35744.857 173247.142 -35802 173132.857 -35916.285 173075.714 -36144.857 173075.714 -36544.857 173132.857 -36773.428 173247.142 -36887.714 173361.428 -36944.857 173590 -36944.857 M 171932.857 -36944.857 172618.571 -36944.857 M 172275.714 -36944.857 172275.714 -35744.857 172390 -35916.285 172504.285 -36030.571 172618.571 -36087.714 M 171190 -35744.857 171075.714 -35744.857 170961.428 -35802 170904.285 -35859.142 170847.142 -35973.428 170790 -36202 170790 -36487.714 170847.142 -36716.285 170904.285 -36830.571 170961.428 -36887.714 171075.714 -36944.857 171190 -36944.857 171304.285 -36887.714 171361.428 -36830.571 171418.571 -36716.285 171475.714 -36487.714 171475.714 -36202 171418.571 -35973.428 171361.428 -35859.142 171304.285 -35802 171190 -35744.857 M 177818.571 -38944.857 177818.571 -37744.857 M 177132.857 -38944.857 177647.142 -38259.142 M 177132.857 -37744.857 177818.571 -38430.571 M 176161.428 -38887.714 176275.714 -38944.857 176504.285 -38944.857 176618.571 -38887.714 176675.714 -38773.428 176675.714 -38316.285 176618.571 -38202 176504.285 -38144.857 176275.714 -38144.857 176161.428 -38202 176104.285 -38316.285 176104.285 -38430.571 176675.714 -38544.857 M 175704.285 -38144.857 175418.571 -38944.857 M 175132.857 -38144.857 175418.571 -38944.857 175532.857 -39230.571 175590 -39287.714 175704.285 -39344.857 M 174675.714 -38944.857 174675.714 -37744.857 M 174675.714 -38202 174561.428 -38144.857 174332.857 -38144.857 174218.571 -38202 174161.428 -38259.142 174104.285 -38373.428 174104.285 -38716.285 174161.428 -38830.571 174218.571 -38887.714 174332.857 -38944.857 174561.428 -38944.857 174675.714 -38887.714 M 173418.571 -38944.857 173532.857 -38887.714 173590 -38830.571 173647.142 -38716.285 173647.142 -38373.428 173590 -38259.142 173532.857 -38202 173418.571 -38144.857 173247.142 -38144.857 173132.857 -38202 173075.714 -38259.142 173018.571 -38373.428 173018.571 -38716.285 173075.714 -38830.571 173132.857 -38887.714 173247.142 -38944.857 173418.571 -38944.857 M 171990 -38944.857 171990 -38316.285 172047.142 -38202 172161.428 -38144.857 172390 -38144.857 172504.285 -38202 M 171990 -38887.714 172104.285 -38944.857 172390 -38944.857 172504.285 -38887.714 172561.428 -38773.428 172561.428 -38659.142 172504.285 -38544.857 172390 -38487.714 172104.285 -38487.714 171990 -38430.571 M 171418.571 -38944.857 171418.571 -38144.857 M 171418.571 -38373.428 171361.428 -38259.142 171304.285 -38202 171190 -38144.857 171075.714 -38144.857 M 170161.428 -38944.857 170161.428 -37744.857 M 170161.428 -38887.714 170275.714 -38944.857 170504.285 -38944.857 170618.571 -38887.714 170675.714 -38830.571 170732.857 -38716.285 170732.857 -38373.428 170675.714 -38259.142 170618.571 -38202 170504.285 -38144.857 170275.714 -38144.857 170161.428 -38202 M 177247.142 -40316.285 177075.714 -40373.428 177018.571 -40430.571 176961.428 -40544.857 176961.428 -40716.285 177018.571 -40830.571 177075.714 -40887.714 177190 -40944.857 177647.142 -40944.857 177647.142 -39744.857 177247.142 -39744.857 177132.857 -39802 177075.714 -39859.142 177018.571 -39973.428 177018.571 -40087.714 177075.714 -40202 177132.857 -40259.142 177247.142 -40316.285 177647.142 -40316.285 M 176447.142 -40944.857 176447.142 -40144.857 M 176447.142 -40373.428 176390 -40259.142 176332.857 -40202 176218.571 -40144.857 176104.285 -40144.857 M 175247.142 -40887.714 175361.428 -40944.857 175590 -40944.857 175704.285 -40887.714 175761.428 -40773.428 175761.428 -40316.285 175704.285 -40202 175590 -40144.857 175361.428 -40144.857 175247.142 -40202 175190 -40316.285 175190 -40430.571 175761.428 -40544.857 M 174161.428 -40944.857 174161.428 -40316.285 174218.571 -40202 174332.857 -40144.857 174561.428 -40144.857 174675.714 -40202 M 174161.428 -40887.714 174275.714 -40944.857 174561.428 -40944.857 174675.714 -40887.714 174732.857 -40773.428 174732.857 -40659.142 174675.714 -40544.857 174561.428 -40487.714 174275.714 -40487.714 174161.428 -40430.571 M 173590 -40944.857 173590 -39744.857 M 173475.714 -40487.714 173132.857 -40944.857 M 173132.857 -40144.857 173590 -40602 M 172447.142 -40944.857 172561.428 -40887.714 172618.571 -40830.571 172675.714 -40716.285 172675.714 -40373.428 172618.571 -40259.142 172561.428 -40202 172447.142 -40144.857 172275.714 -40144.857 172161.428 -40202 172104.285 -40259.142 172047.142 -40373.428 172047.142 -40716.285 172104.285 -40830.571 172161.428 -40887.714 172275.714 -40944.857 172447.142 -40944.857 M 171018.571 -40144.857 171018.571 -40944.857 M 171532.857 -40144.857 171532.857 -40773.428 171475.714 -40887.714 171361.428 -40944.857 171190 -40944.857 171075.714 -40887.714 171018.571 -40830.571 M 170618.571 -40144.857 170161.428 -40144.857 M 170447.142 -39744.857 170447.142 -40773.428 170390 -40887.714 170275.714 -40944.857 170161.428 -40944.857 M 175161.428 -42944.857 175161.428 -41744.857 M 175161.428 -42202 175047.142 -42144.857 174818.571 -42144.857 174704.285 -42202 174647.142 -42259.142 174590 -42373.428 174590 -42716.285 174647.142 -42830.571 174704.285 -42887.714 174818.571 -42944.857 175047.142 -42944.857 175161.428 -42887.714 M 174190 -42144.857 173904.285 -42944.857 M 173618.571 -42144.857 173904.285 -42944.857 174018.571 -43230.571 174075.714 -43287.714 174190 -43344.857 M 177618.571 -44944.857 177618.571 -44316.285 177675.714 -44202 177790 -44144.857 178018.571 -44144.857 178132.857 -44202 M 177618.571 -44887.714 177732.857 -44944.857 178018.571 -44944.857 178132.857 -44887.714 178190 -44773.428 178190 -44659.142 178132.857 -44544.857 178018.571 -44487.714 177732.857 -44487.714 177618.571 -44430.571 M 177047.142 -44944.857 177047.142 -44144.857 M 177047.142 -44373.428 176990 -44259.142 176932.857 -44202 176818.571 -44144.857 176704.285 -44144.857 M 176475.714 -44144.857 176018.571 -44144.857 M 176304.285 -43744.857 176304.285 -44773.428 176247.142 -44887.714 176132.857 -44944.857 176018.571 -44944.857 M 175104.285 -44144.857 175104.285 -44944.857 M 175618.571 -44144.857 175618.571 -44773.428 175561.428 -44887.714 175447.142 -44944.857 175275.714 -44944.857 175161.428 -44887.714 175104.285 -44830.571 M 174532.857 -44944.857 174532.857 -44144.857 M 174532.857 -44373.428 174475.714 -44259.142 174418.571 -44202 174304.285 -44144.857 174190 -44144.857 M 173618.571 -44944.857 173732.857 -44887.714 173790 -44830.571 173847.142 -44716.285 173847.142 -44373.428 173790 -44259.142 173732.857 -44202 173618.571 -44144.857 173447.142 -44144.857 173332.857 -44202 173275.714 -44259.142 173218.571 -44373.428 173218.571 -44716.285 173275.714 -44830.571 173332.857 -44887.714 173447.142 -44944.857 173618.571 -44944.857 M 172075.714 -44944.857 172761.428 -44944.857 M 172418.571 -44944.857 172418.571 -43744.857 172532.857 -43916.285 172647.142 -44030.571 172761.428 -44087.714 M 171390 -44259.142 171504.285 -44202 171561.428 -44144.857 171618.571 -44030.571 171618.571 -43973.428 171561.428 -43859.142 171504.285 -43802 171390 -43744.857 171161.428 -43744.857 171047.142 -43802 170990 -43859.142 170932.857 -43973.428 170932.857 -44030.571 170990 -44144.857 171047.142 -44202 171161.428 -44259.142 171390 -44259.142 171504.285 -44316.285 171561.428 -44373.428 171618.571 -44487.714 171618.571 -44716.285 171561.428 -44830.571 171504.285 -44887.714 171390 -44944.857 171161.428 -44944.857 171047.142 -44887.714 170990 -44830.571 170932.857 -44716.285 170932.857 -44487.714 170990 -44373.428 171047.142 -44316.285 171161.428 -44259.142 M 170475.714 -43859.142 170418.571 -43802 170304.285 -43744.857 170018.571 -43744.857 169904.285 -43802 169847.142 -43859.142 169790 -43973.428 169790 -44087.714 169847.142 -44259.142 170532.857 -44944.857 169790 -44944.857 M 177647.142 -45744.857 177647.142 -46602 177704.285 -46773.428 177818.571 -46887.714 177990 -46944.857 178104.285 -46944.857 M 176561.428 -46944.857 176561.428 -46316.285 176618.571 -46202 176732.857 -46144.857 176961.428 -46144.857 177075.714 -46202 M 176561.428 -46887.714 176675.714 -46944.857 176961.428 -46944.857 177075.714 -46887.714 177132.857 -46773.428 177132.857 -46659.142 177075.714 -46544.857 176961.428 -46487.714 176675.714 -46487.714 176561.428 -46430.571 M 175990 -46144.857 175990 -46944.857 M 175990 -46259.142 175932.857 -46202 175818.571 -46144.857 175647.142 -46144.857 175532.857 -46202 175475.714 -46316.285 175475.714 -46944.857 M 174047.142 -45859.142 173990 -45802 173875.714 -45744.857 173590 -45744.857 173475.714 -45802 173418.571 -45859.142 173361.428 -45973.428 173361.428 -46087.714 173418.571 -46259.142 174104.285 -46944.857 173361.428 -46944.857 M 172618.571 -45744.857 172504.285 -45744.857 172390 -45802 172332.857 -45859.142 172275.714 -45973.428 172218.571 -46202 172218.571 -46487.714 172275.714 -46716.285 172332.857 -46830.571 172390 -46887.714 172504.285 -46944.857 172618.571 -46944.857 172732.857 -46887.714 172790 -46830.571 172847.142 -46716.285 172904.285 -46487.714 172904.285 -46202 172847.142 -45973.428 172790 -45859.142 172732.857 -45802 172618.571 -45744.857 M 171075.714 -46944.857 171761.428 -46944.857 M 171418.571 -46944.857 171418.571 -45744.857 171532.857 -45916.285 171647.142 -46030.571 171761.428 -46087.714 M 170390 -46259.142 170504.285 -46202 170561.428 -46144.857 170618.571 -46030.571 170618.571 -45973.428 170561.428 -45859.142 170504.285 -45802 170390 -45744.857 170161.428 -45744.857 170047.142 -45802 169990 -45859.142 169932.857 -45973.428 169932.857 -46030.571 169990 -46144.857 170047.142 -46202 170161.428 -46259.142 170390 -46259.142 170504.285 -46316.285 170561.428 -46373.428 170618.571 -46487.714 170618.571 -46716.285 170561.428 -46830.571 170504.285 -46887.714 170390 -46944.857 170161.428 -46944.857 170047.142 -46887.714 169990 -46830.571 169932.857 -46716.285 169932.857 -46487.714 169990 -46373.428 170047.142 -46316.285 170161.428 -46259.142" fill="none" stroke-width="200"/><path d="M 181670 -52130 179010 -52130 M 181670 -34290 181670 -52130 M 179010 -34290 179010 -52130 M 181670 -34290 179010 -34290 M 181670 -33020 181670 -31690 180340 -31690 M 168970 -31690 167640 -31690 M 168970 -33020 168970 -31690 M 168970 -34290 166310 -34290 166310 -52130 M 168970 -34290 168970 -52130 166310 -52130" fill="none" stroke-width="120"/></g><g id="pcb-stackup_bottom_drl1"><use xlink:href="#prg-1EIIk5F6_pad-1" x="170180" y="-49784"/><use xlink:href="#prg-1EIIk5F6_pad-1" x="171450" y="-46482"/><use xlink:href="#prg-1EIIk5F6_pad-1" x="172466" y="-44831"/><use xlink:href="#prg-1EIIk5F6_pad-1" x="173736" y="-49276"/><use xlink:href="#prg-1EIIk5F6_pad-1" x="173736" y="-50165"/><use xlink:href="#prg-1EIIk5F6_pad-1" x="174100" y="-47100"/><use xlink:href="#prg-1EIIk5F6_pad-1" x="174100" y="-48000"/><use xlink:href="#prg-1EIIk5F6_pad-1" x="177038" y="-51054"/><use xlink:href="#prg-1EIIk5F6_pad-1" x="177700" y="-48600"/><use xlink:href="#prg-1EIIk5F6_pad-1" x="178700" y="-49100"/><use xlink:href="#prg-1EIIk5F6_pad-2" x="167640" y="-33020"/><use xlink:href="#prg-1EIIk5F6_pad-2" x="167640" y="-35560"/><use xlink:href="#prg-1EIIk5F6_pad-2" x="167640" y="-38100"/><use xlink:href="#prg-1EIIk5F6_pad-2" x="167640" y="-40640"/><use xlink:href="#prg-1EIIk5F6_pad-2" x="167640" y="-43180"/><use xlink:href="#prg-1EIIk5F6_pad-2" x="167640" y="-45720"/><use xlink:href="#prg-1EIIk5F6_pad-2" x="167640" y="-48260"/><use xlink:href="#prg-1EIIk5F6_pad-2" x="167640" y="-50800"/><use xlink:href="#prg-1EIIk5F6_pad-2" x="180340" y="-33020"/><use xlink:href="#prg-1EIIk5F6_pad-2" x="180340" y="-35560"/><use xlink:href="#prg-1EIIk5F6_pad-2" x="180340" y="-38100"/><use xlink:href="#prg-1EIIk5F6_pad-2" x="180340" y="-40640"/><use xlink:href="#prg-1EIIk5F6_pad-2" x="180340" y="-43180"/><use xlink:href="#prg-1EIIk5F6_pad-2" x="180340" y="-45720"/><use xlink:href="#prg-1EIIk5F6_pad-2" x="180340" y="-48260"/><use xlink:href="#prg-1EIIk5F6_pad-2" x="180340" y="-50800"/></g><clipPath id="pcb-stackup_bottom_out"><path d="M 167005 -52705 A 1270 1270 0 0 0 165735 -51435 L 165735 -32385 A 1270 1270 0 0 0 167005 -31115 L 180975 -31115 A 1270 1270 0 0 0 182245 -32385 L 182245 -51435 A 1270 1270 0 0 0 180975 -52705 L 167005 -52705" fill="none" stroke-width="150"/></clipPath><mask id="pcb-stackup_bottom_mech-mask"><g fill="#000" stroke="#000"><rect x="165735" y="-52705" width="16510" height="21590" fill="#fff"/><use xlink:href="#pcb-stackup_bottom_drl1"/></g></mask><mask id="pcb-stackup_bottom_cf-mask"><g fill="#fff" stroke="#fff"><use xlink:href="#pcb-stackup_bottom_sm"/></g></mask><mask id="pcb-stackup_bottom_sm-mask"><g fill="#000" stroke="#000"><rect x="165735" y="-52705" width="16510" height="21590" fill="#fff"/><use xlink:href="#pcb-stackup_bottom_sm"/></g></mask></defs><g transform="translate(0,-83820) scale(1,-1)"><g mask="url(#pcb-stackup_bottom_mech-mask)" clip-path="url(#pcb-stackup_bottom_out)" transform="translate(347980,0) scale(-1,1)"><rect x="165735" y="-52705" width="16510" height="21590" fill="currentColor" class="pcb-stackup_fr4"/><use xlink:href="#pcb-stackup_bottom_cu" fill="currentColor" stroke="currentColor" class="pcb-stackup_cu"/><use xlink:href="#pcb-stackup_bottom_cu" fill="currentColor" stroke="currentColor" class="pcb-stackup_cf" mask="url(#pcb-stackup_bottom_cf-mask)"/><g mask="url(#pcb-stackup_bottom_sm-mask)"><rect x="165735" y="-52705" width="16510" height="21590" fill="currentColor" class="pcb-stackup_sm"/><use xlink:href="#pcb-stackup_bottom_ss" fill="currentColor" stroke="currentColor" class="pcb-stackup_ss"/></g></g></g></svg>