<svg id="pcb-stackup_top" version="1.1" xmlns:xlink="http://www.w3.org/1999/xlink" stroke-linecap="round" stroke-linejoin="round" stroke-width="0" fill-rule="evenodd" clip-rule="evenodd" viewBox="165735 -52705 16510 21590" width="16.51mm" height="21.59mm" xmlns="http://www.w3.org/2000/svg"><defs><style>.pcb-stackup_fr4 {color: #4D542C;}
.pcb-stackup_cu {color: lightgrey;}
.pcb-stackup_cf {color: goldenrod;}
.pcb-stackup_sm {color: #004400; opacity: 0.9;}
.pcb-stackup_ss {color: white;}
.pcb-stackup_sp {color: #000000; opacity: 0;}
.pcb-stackup_out {color: black;}</style><rect x="-850" y="-850" width="1700" height="1700" id="W3Vcd.fzd2RF_pad-10"/><rect x="-850" y="-850" width="1700" height="1700" rx="850" ry="850" id="W3Vcd.fzd2RF_pad-11"/><rect x="-400" y="-375" width="800" height="750" id="W3Vcd.fzd2RF_pad-12"/><rect x="-400" y="-100" width="800" height="200" id="W3Vcd.fzd2RF_pad-13"/><rect x="-400" y="-200" width="800" height="400" id="W3Vcd.fzd2RF_pad-14"/><circle cx="0" cy="0" r="225" id="W3Vcd.fzd2RF_pad-15"/><rect x="-850" y="-850" width="1700" height="1700" id="W3Vcd.fzd2RF_pad-10"/><rect x="-850" y="-850" width="1700" height="1700" rx="850" ry="850" id="W3Vcd.fzd2RF_pad-11"/><rect x="-400" y="-375" width="800" height="750" id="W3Vcd.fzd2RF_pad-12"/><rect x="-400" y="-100" width="800" height="200" id="W3Vcd.fzd2RF_pad-13"/><rect x="-400" y="-200" width="800" height="400" id="W3Vcd.fzd2RF_pad-14"/><circle cx="0" cy="0" r="225" id="W3Vcd.fzd2RF_pad-15"/><rect x="-1050" y="-1050" width="2100" height="2100" id="zl23NpDUuwXL_pad-10"/><rect x="-1050" y="-1050" width="2100" height="2100" rx="1050" ry="1050" id="zl23NpDUuwXL_pad-11"/><rect x="-600" y="-575" width="1200" height="1150" id="zl23NpDUuwXL_pad-12"/><rect x="-600" y="-300" width="1200" height="600" id="zl23NpDUuwXL_pad-13"/><rect x="-600" y="-400" width="1200" height="800" id="zl23NpDUuwXL_pad-14"/><rect x="-850" y="-850" width="1700" height="1700" id="W3Vcd.fzd2RF_pad-10"/><rect x="-850" y="-850" width="1700" height="1700" rx="850" ry="850" id="W3Vcd.fzd2RF_pad-11"/><rect x="-400" y="-375" width="800" height="750" id="W3Vcd.fzd2RF_pad-12"/><rect x="-400" y="-100" width="800" height="200" id="W3Vcd.fzd2RF_pad-13"/><rect x="-400" y="-200" width="800" height="400" id="W3Vcd.fzd2RF_pad-14"/><circle cx="0" cy="0" r="225" id="W3Vcd.fzd2RF_pad-15"/><rect x="-850" y="-850" width="1700" height="1700" id="W3Vcd.fzd2RF_pad-10"/><rect x="-850" y="-850" width="1700" height="1700" rx="850" ry="850" id="W3Vcd.fzd2RF_pad-11"/><rect x="-400" y="-375" width="800" height="750" id="W3Vcd.fzd2RF_pad-12"/><rect x="-400" y="-100" width="800" height="200" id="W3Vcd.fzd2RF_pad-13"/><rect x="-400" y="-200" width="800" height="400" id="W3Vcd.fzd2RF_pad-14"/><circle cx="0" cy="0" r="225" id="W3Vcd.fzd2RF_pad-15"/><rect x="-1050" y="-1050" width="2100" height="2100" id="zl23NpDUuwXL_pad-10"/><rect x="-1050" y="-1050" width="2100" height="2100" rx="1050" ry="1050" id="zl23NpDUuwXL_pad-11"/><rect x="-600" y="-575" width="1200" height="1150" id="zl23NpDUuwXL_pad-12"/><rect x="-600" y="-300" width="1200" height="600" id="zl23NpDUuwXL_pad-13"/><rect x="-600" y="-400" width="1200" height="800" id="zl23NpDUuwXL_pad-14"/><rect x="-850" y="-850" width="1700" height="1700" id="W3Vcd.fzd2RF_pad-10"/><rect x="-850" y="-850" width="1700" height="1700" rx="850" ry="850" id="W3Vcd.fzd2RF_pad-11"/><rect x="-400" y="-375" width="800" height="750" id="W3Vcd.fzd2RF_pad-12"/><rect x="-400" y="-100" width="800" height="200" id="W3Vcd.fzd2RF_pad-13"/><rect x="-400" y="-200" width="800" height="400" id="W3Vcd.fzd2RF_pad-14"/><circle cx="0" cy="0" r="225" id="W3Vcd.fzd2RF_pad-15"/><rect x="-850" y="-850" width="1700" height="1700" id="W3Vcd.fzd2RF_pad-10"/><rect x="-850" y="-850" width="1700" height="1700" rx="850" ry="850" id="W3Vcd.fzd2RF_pad-11"/><rect x="-400" y="-375" width="800" height="750" id="W3Vcd.fzd2RF_pad-12"/><rect x="-400" y="-100" width="800" height="200" id="W3Vcd.fzd2RF_pad-13"/><rect x="-400" y="-200" width="800" height="400" id="W3Vcd.fzd2RF_pad-14"/><circle cx="0" cy="0" r="225" id="W3Vcd.fzd2RF_pad-15"/><rect x="-1050" y="-1050" width="2100" height="2100" id="zl23NpDUuwXL_pad-10"/><rect x="-1050" y="-1050" width="2100" height="2100" rx="1050" ry="1050" id="zl23NpDUuwXL_pad-11"/><rect x="-600" y="-575" width="1200" height="1150" id="zl23NpDUuwXL_pad-12"/><rect x="-600" y="-300" width="1200" height="600" id="zl23NpDUuwXL_pad-13"/><rect x="-600" y="-400" width="1200" height="800" id="zl23NpDUuwXL_pad-14"/><rect x="-850" y="-850" width="1700" height="1700" id="W3Vcd.fzd2RF_pad-10"/><rect x="-850" y="-850" width="1700" height="1700" rx="850" ry="850" id="W3Vcd.fzd2RF_pad-11"/><rect x="-400" y="-375" width="800" height="750" id="W3Vcd.fzd2RF_pad-12"/><rect x="-400" y="-100" width="800" height="200" id="W3Vcd.fzd2RF_pad-13"/><rect x="-400" y="-200" width="800" height="400" id="W3Vcd.fzd2RF_pad-14"/><circle cx="0" cy="0" r="225" id="W3Vcd.fzd2RF_pad-15"/><rect x="-850" y="-850" width="1700" height="1700" id="W3Vcd.fzd2RF_pad-10"/><rect x="-850" y="-850" width="1700" height="1700" rx="850" ry="850" id="W3Vcd.fzd2RF_pad-11"/><rect x="-400" y="-375" width="800" height="750" id="W3Vcd.fzd2RF_pad-12"/><rect x="-400" y="-100" width="800" height="200" id="W3Vcd.fzd2RF_pad-13"/><rect x="-400" y="-200" width="800" height="400" id="W3Vcd.fzd2RF_pad-14"/><circle cx="0" cy="0" r="225" id="W3Vcd.fzd2RF_pad-15"/><rect x="-1050" y="-1050" width="2100" height="2100" id="zl23NpDUuwXL_pad-10"/><rect x="-1050" y="-1050" width="2100" height="2100" rx="1050" ry="1050" id="zl23NpDUuwXL_pad-11"/><rect x="-600" y="-575" width="1200" height="1150" id="zl23NpDUuwXL_pad-12"/><rect x="-600" y="-300" width="1200" height="600" id="zl23NpDUuwXL_pad-13"/><rect x="-600" y="-400" width="1200" height="800" id="zl23NpDUuwXL_pad-14"/><circle cx="0" cy="0" r="150" id="prg-1EIIk5F6_pad-1"/><circle cx="0" cy="0" r="500" id="prg-1EIIk5F6_pad-2"/><rect x="-850" y="-850" width="1700" height="1700" id="W3Vcd.fzd2RF_pad-10"/><rect x="-850" y="-850" width="1700" height="1700" rx="850" ry="850" id="W3Vcd.fzd2RF_pad-11"/><rect x="-400" y="-375" width="800" height="750" id="W3Vcd.fzd2RF_pad-12"/><rect x="-400" y="-100" width="800" height="200" id="W3Vcd.fzd2RF_pad-13"/><rect x="-400" y="-200" width="800" height="400" id="W3Vcd.fzd2RF_pad-14"/><circle cx="0" cy="0" r="225" id="W3Vcd.fzd2RF_pad-15"/><rect x="-850" y="-850" width="1700" height="1700" id="W3Vcd.fzd2RF_pad-10"/><rect x="-850" y="-850" width="1700" height="1700" rx="850" ry="850" id="W3Vcd.fzd2RF_pad-11"/><rect x="-400" y="-375" width="800" height="750" id="W3Vcd.fzd2RF_pad-12"/><rect x="-400" y="-100" width="800" height="200" id="W3Vcd.fzd2RF_pad-13"/><rect x="-400" y="-200" width="800" height="400" id="W3Vcd.fzd2RF_pad-14"/><circle cx="0" cy="0" r="225" id="W3Vcd.fzd2RF_pad-15"/><rect x="-1050" y="-1050" width="2100" height="2100" id="zl23NpDUuwXL_pad-10"/><rect x="-1050" y="-1050" width="2100" height="2100" rx="1050" ry="1050" id="zl23NpDUuwXL_pad-11"/><rect x="-600" y="-575" width="1200" height="1150" id="zl23NpDUuwXL_pad-12"/><rect x="-600" y="-300" width="1200" height="600" id="zl23NpDUuwXL_pad-13"/><rect x="-600" y="-400" width="1200" height="800" id="zl23NpDUuwXL_pad-14"/><rect x="-850" y="-850" width="1700" height="1700" id="W3Vcd.fzd2RF_pad-10"/><rect x="-850" y="-850" width="1700" height="1700" rx="850" ry="850" id="W3Vcd.fzd2RF_pad-11"/><rect x="-400" y="-375" width="800" height="750" id="W3Vcd.fzd2RF_pad-12"/><rect x="-400" y="-100" width="800" height="200" id="W3Vcd.fzd2RF_pad-13"/><rect x="-400" y="-200" width="800" height="400" id="W3Vcd.fzd2RF_pad-14"/><circle cx="0" cy="0" r="225" id="W3Vcd.fzd2RF_pad-15"/><rect x="-850" y="-850" width="1700" height="1700" id="W3Vcd.fzd2RF_pad-10"/><rect x="-850" y="-850" width="1700" height="1700" rx="850" ry="850" id="W3Vcd.fzd2RF_pad-11"/><rect x="-400" y="-375" width="800" height="750" id="W3Vcd.fzd2RF_pad-12"/><rect x="-400" y="-100" width="800" height="200" id="W3Vcd.fzd2RF_pad-13"/><rect x="-400" y="-200" width="800" height="400" id="W3Vcd.fzd2RF_pad-14"/><circle cx="0" cy="0" r="225" id="W3Vcd.fzd2RF_pad-15"/><rect x="-1050" y="-1050" width="2100" height="2100" id="zl23NpDUuwXL_pad-10"/><rect x="-1050" y="-1050" width="2100" height="2100" rx="1050" ry="1050" id="zl23NpDUuwXL_pad-11"/><rect x="-600" y="-575" width="1200" height="1150" id="zl23NpDUuwXL_pad-12"/><rect x="-600" y="-300" width="1200" height="600" id="zl23NpDUuwXL_pad-13"/><rect x="-600" y="-400" width="1200" height="800" id="zl23NpDUuwXL_pad-14"/><rect x="-850" y="-850" width="1700" height="1700" id="W3Vcd.fzd2RF_pad-10"/><rect x="-850" y="-850" width="1700" height="1700" rx="850" ry="850" id="W3Vcd.fzd2RF_pad-11"/><rect x="-400" y="-375" width="800" height="750" id="W3Vcd.fzd2RF_pad-12"/><rect x="-400" y="-100" width="800" height="200" id="W3Vcd.fzd2RF_pad-13"/><rect x="-400" y="-200" width="800" height="400" id="W3Vcd.fzd2RF_pad-14"/><circle cx="0" cy="0" r="225" id="W3Vcd.fzd2RF_pad-15"/><rect x="-850" y="-850" width="1700" height="1700" id="W3Vcd.fzd2RF_pad-10"/><rect x="-850" y="-850" width="1700" height="1700" rx="850" ry="850" id="W3Vcd.fzd2RF_pad-11"/><rect x="-400" y="-375" width="800" height="750" id="W3Vcd.fzd2RF_pad-12"/><rect x="-400" y="-100" width="800" height="200" id="W3Vcd.fzd2RF_pad-13"/><rect x="-400" y="-200" width="800" height="400" id="W3Vcd.fzd2RF_pad-14"/><circle cx="0" cy="0" r="225" id="W3Vcd.fzd2RF_pad-15"/><rect x="-1050" y="-1050" width="2100" height="2100" id="zl23NpDUuwXL_pad-10"/><rect x="-1050" y="-1050" width="2100" height="2100" rx="1050" ry="1050" id="zl23NpDUuwXL_pad-11"/><rect x="-600" y="-575" width="1200" height="1150" id="zl23NpDUuwXL_pad-12"/><rect x="-600" y="-300" width="1200" height="600" id="zl23NpDUuwXL_pad-13"/><rect x="-600" y="-400" width="1200" height="800" id="zl23NpDUuwXL_pad-14"/><rect x="-850" y="-850" width="1700" height="1700" id="W3Vcd.fzd2RF_pad-10"/><rect x="-850" y="-850" width="1700" height="1700" rx="850" ry="850" id="W3Vcd.fzd2RF_pad-11"/><rect x="-400" y="-375" width="800" height="750" id="W3Vcd.fzd2RF_pad-12"/><rect x="-400" y="-100" width="800" height="200" id="W3Vcd.fzd2RF_pad-13"/><rect x="-400" y="-200" width="800" height="400" id="W3Vcd.fzd2RF_pad-14"/><circle cx="0" cy="0" r="225" id="W3Vcd.fzd2RF_pad-15"/><rect x="-850" y="-850" width="1700" height="1700" id="W3Vcd.fzd2RF_pad-10"/><rect x="-850" y="-850" width="1700" height="1700" rx="850" ry="850" id="W3Vcd.fzd2RF_pad-11"/><rect x="-400" y="-375" width="800" height="750" id="W3Vcd.fzd2RF_pad-12"/><rect x="-400" y="-100" width="800" height="200" id="W3Vcd.fzd2RF_pad-13"/><rect x="-400" y="-200" width="800" height="400" id="W3Vcd.fzd2RF_pad-14"/><circle cx="0" cy="0" r="225" id="W3Vcd.fzd2RF_pad-15"/><rect x="-1050" y="-1050" width="2100" height="2100" id="zl23NpDUuwXL_pad-10"/><rect x="-1050" y="-1050" width="2100" height="2100" rx="1050" ry="1050" id="zl23NpDUuwXL_pad-11"/><rect x="-600" y="-575" width="1200" height="1150" id="zl23NpDUuwXL_pad-12"/><rect x="-600" y="-300" width="1200" height="600" id="zl23NpDUuwXL_pad-13"/><rect x="-600" y="-400" width="1200" height="800" id="zl23NpDUuwXL_pad-14"/><circle cx="0" cy="0" r="150" id="prg-1EIIk5F6_pad-1"/><circle cx="0" cy="0" r="500" id="prg-1EIIk5F6_pad-2"/><g id="pcb-stackup_top_cu"><use xlink:href="#W3Vcd.fzd2RF_pad-10" x="180340" y="-33020"/><use xlink:href="#W3Vcd.fzd2RF_pad-11" x="180340" y="-35560"/><use xlink:href="#W3Vcd.fzd2RF_pad-11" x="180340" y="-38100"/><use xlink:href="#W3Vcd.fzd2RF_pad-11" x="180340" y="-40640"/><use xlink:href="#W3Vcd.fzd2RF_pad-11" x="180340" y="-43180"/><use xlink:href="#W3Vcd.fzd2RF_pad-11" x="180340" y="-45720"/><use xlink:href="#W3Vcd.fzd2RF_pad-11" x="180340" y="-48260"/><use xlink:href="#W3Vcd.fzd2RF_pad-11" x="180340" y="-50800"/><use xlink:href="#W3Vcd.fzd2RF_pad-11" x="167640" y="-50800"/><use xlink:href="#W3Vcd.fzd2RF_pad-11" x="167640" y="-48260"/><use xlink:href="#W3Vcd.fzd2RF_pad-11" x="167640" y="-45720"/><use xlink:href="#W3Vcd.fzd2RF_pad-11" x="167640" y="-43180"/><use xlink:href="#W3Vcd.fzd2RF_pad-11" x="167640" y="-40640"/><use xlink:href="#W3Vcd.fzd2RF_pad-11" x="167640" y="-38100"/><use xlink:href="#W3Vcd.fzd2RF_pad-11" x="167640" y="-35560"/><use xlink:href="#W3Vcd.fzd2RF_pad-10" x="167640" y="-33020"/><use xlink:href="#W3Vcd.fzd2RF_pad-12" x="173240" y="-41402"/><use xlink:href="#W3Vcd.fzd2RF_pad-12" x="174740" y="-41402"/><use xlink:href="#W3Vcd.fzd2RF_pad-13" x="175140" y="-46060"/><use xlink:href="#W3Vcd.fzd2RF_pad-13" x="175140" y="-46460"/><use xlink:href="#W3Vcd.fzd2RF_pad-13" x="175140" y="-46860"/><use xlink:href="#W3Vcd.fzd2RF_pad-13" x="175140" y="-47260"/><use xlink:href="#W3Vcd.fzd2RF_pad-13" x="175140" y="-47660"/><use xlink:href="#W3Vcd.fzd2RF_pad-13" x="175140" y="-48060"/><use xlink:href="#W3Vcd.fzd2RF_pad-13" x="175140" y="-48460"/><use xlink:href="#W3Vcd.fzd2RF_pad-13" x="175140" y="-48860"/><use xlink:href="#W3Vcd.fzd2RF_pad-13" x="175140" y="-49260"/><use xlink:href="#W3Vcd.fzd2RF_pad-13" x="175140" y="-49660"/><use xlink:href="#W3Vcd.fzd2RF_pad-13" x="175140" y="-50060"/><use xlink:href="#W3Vcd.fzd2RF_pad-13" x="175140" y="-50460"/><use xlink:href="#W3Vcd.fzd2RF_pad-13" x="172840" y="-50460"/><use xlink:href="#W3Vcd.fzd2RF_pad-13" x="172840" y="-50060"/><use xlink:href="#W3Vcd.fzd2RF_pad-13" x="172840" y="-49660"/><use xlink:href="#W3Vcd.fzd2RF_pad-13" x="172840" y="-49260"/><use xlink:href="#W3Vcd.fzd2RF_pad-13" x="172840" y="-48860"/><use xlink:href="#W3Vcd.fzd2RF_pad-13" x="172840" y="-48460"/><use xlink:href="#W3Vcd.fzd2RF_pad-13" x="172840" y="-48060"/><use xlink:href="#W3Vcd.fzd2RF_pad-13" x="172840" y="-47660"/><use xlink:href="#W3Vcd.fzd2RF_pad-13" x="172840" y="-47260"/><use xlink:href="#W3Vcd.fzd2RF_pad-13" x="172840" y="-46860"/><use xlink:href="#W3Vcd.fzd2RF_pad-13" x="172840" y="-46460"/><use xlink:href="#W3Vcd.fzd2RF_pad-13" x="172840" y="-46060"/><use xlink:href="#W3Vcd.fzd2RF_pad-14" x="175140" y="-45560"/><use xlink:href="#W3Vcd.fzd2RF_pad-14" x="175140" y="-50960"/><use xlink:href="#W3Vcd.fzd2RF_pad-14" x="172840" y="-50960"/><use xlink:href="#W3Vcd.fzd2RF_pad-14" x="172840" y="-45560"/><use xlink:href="#W3Vcd.fzd2RF_pad-15" x="177038" y="-51054"/><use xlink:href="#W3Vcd.fzd2RF_pad-15" x="170180" y="-49784"/><use xlink:href="#W3Vcd.fzd2RF_pad-15" x="172466" y="-44831"/><use xlink:href="#W3Vcd.fzd2RF_pad-15" x="171450" y="-46482"/><use xlink:href="#W3Vcd.fzd2RF_pad-15" x="173736" y="-49276"/><use xlink:href="#W3Vcd.fzd2RF_pad-15" x="173736" y="-50165"/><use xlink:href="#W3Vcd.fzd2RF_pad-15" x="178700" y="-49100"/><use xlink:href="#W3Vcd.fzd2RF_pad-15" x="174100" y="-47100"/><use xlink:href="#W3Vcd.fzd2RF_pad-15" x="177700" y="-48600"/><use xlink:href="#W3Vcd.fzd2RF_pad-15" x="174100" y="-48000"/><path d="M 173417.8 -47260 173600 -47077.8 M 172840 -47260 173417.8 -47260 M 173600 -47077.8 173600 -46618 173990 -46228" fill="none" stroke-width="177.8"/><path d="M 173990 -45847 173990 -46228" fill="none" stroke-width="254"/><path d="M 172840 -46460 173758 -46460 173990 -46228" fill="none" stroke-width="177.8"/><path d="M 173990 -42781 173990 -45847" fill="none" stroke-width="254"/><path d="M 175140 -46060 174203 -46060 173990 -45847" fill="none" stroke-width="177.8"/><path d="M 173240 -41402 173240 -42031 173990 -42781 M 180340 -33020 179236 -33020 173240 -39016 173240 -40773 173240 -41402" fill="none" stroke-width="254"/><path d="M 175140 -46860 175140 -47260 176006 -47260 M 172840 -45205 172466 -44831 M 172840 -45560 172840 -45205 M 172262.2 -46860 171828 -46860 M 172840 -47660 172262.2 -47660 171450 -46847.8 171450 -46800.198 171450 -46482 M 172840 -46860 171828 -46860 171450 -46482 M 172840 -50460 172262.2 -50460 172176.2 -50546 M 172262.2 -46860 172259.2 -46863 M 175140 -49660 175140 -50060 M 171917 -46060 170840.44 -44983.44 M 172840 -46060 171917 -46060 M 170840.44 -44983.44 170840.44 -38760.44 168489.999 -36409.999 167640 -35560 M 170484.83 -46654.738 170484.83 -40944.83 167640 -38100 M 172840 -48060 171890.092 -48060 170484.83 -46654.738 M 176806 -46460 177800 -45466 M 175140 -46460 176806 -46460 M 177800 -45466 177800 -38100 179490.001 -36409.999 180340 -35560 M 170129.22 -46939.22 170129.22 -43129.22 167640 -40640 M 171650 -48460 170129.22 -46939.22 M 172840 -48460 171650 -48460 M 173720 -49260 173736 -49276 M 172840 -49260 173720 -49260 M 169773.609 -47086.518 169773.609 -45313.609 167640 -43180 M 171547.091 -48860 169773.609 -47086.518 M 172840 -48860 171547.091 -48860 M 173631 -50060 173736 -50165 M 172840 -50060 173631 -50060 M 171844.182 -49660 167904.182 -45720 M 172840 -49660 171844.182 -49660 M 167904.182 -45720 167640 -45720 M 175140 -49260 178540 -49260 178700 -49100 M 174562.2 -48460 174530.484 -48491.716 M 175140 -48460 174562.2 -48460 M 173863.982 -48491.716 173608.298 -48236.032 M 173608.298 -47591.702 173875.001 -47324.999 174100 -47100 M 173608.298 -48236.032 173608.298 -47591.702 M 174530.484 -48491.716 173863.982 -48491.716 M 177475.001 -48824.999 177700 -48600 M 177440 -48860 177475.001 -48824.999 M 175140 -48860 177440 -48860 M 175140 -47660 174440 -47660 174324.999 -47775.001 174100 -48000 M 179124 -48060 179324 -48260 M 175140 -48060 179124 -48060 M 179324 -48260 180340 -48260" fill="none" stroke-width="177.8"/><path d="M 181283.086 -31641.216 181544.268 -31815.732 181718.785 -32076.915 181789 -32429.911 181789 -51390.089 181718.785 -51743.085 181544.268 -52004.268 181283.086 -52178.784 180930.088 -52249 167049.911 -52249 166696.915 -52178.785 166435.732 -52004.268 166261.216 -51743.086 166191 -51390.088 166191 -50800 166384.883 -50800 166478.587 -51271.083 166745.435 -51670.448 167144.8 -51937.296 167615.883 -52031 167664.117 -52031 168135.2 -51937.296 168534.565 -51670.448 168801.413 -51271.083 168824.453 -51155.25 172059 -51155.25 172059 -51235.786 172117.004 -51375.82 172224.181 -51482.996 172364.215 -51541 172617.75 -51541 172713 -51445.75 172713 -51060 172967 -51060 172967 -51445.75 173062.25 -51541 173315.785 -51541 173455.819 -51482.996 173562.996 -51375.82 173621 -51235.786 173621 -51155.25 174359 -51155.25 174359 -51235.786 174417.004 -51375.82 174524.181 -51482.996 174664.215 -51541 174917.75 -51541 175013 -51445.75 175013 -51060 175267 -51060 175267 -51445.75 175362.25 -51541 175615.785 -51541 175755.819 -51482.996 175862.996 -51375.82 175921 -51235.786 175921 -51155.25 175825.75 -51060 175267 -51060 175013 -51060 174454.25 -51060 174359 -51155.25 173621 -51155.25 173525.75 -51060 172967 -51060 172713 -51060 172154.25 -51060 172059 -51155.25 168824.453 -51155.25 168895.117 -50800 168801.413 -50328.917 168534.565 -49929.552 168135.2 -49662.704 167664.117 -49569 167615.883 -49569 167144.8 -49662.704 166745.435 -49929.552 166478.587 -50328.917 166384.883 -50800 166191 -50800 166191 -48260 166384.883 -48260 166478.587 -48731.083 166745.435 -49130.448 167144.8 -49397.296 167615.883 -49491 167664.117 -49491 168135.2 -49397.296 168534.565 -49130.448 168801.413 -48731.083 168895.117 -48260 168801.413 -47788.917 168534.565 -47389.552 168135.2 -47122.704 167664.117 -47029 167615.883 -47029 167144.8 -47122.704 166745.435 -47389.552 166478.587 -47788.917 166384.883 -48260 166191 -48260 166191 -35560 166384.883 -35560 166478.587 -36031.083 166745.435 -36430.448 167144.8 -36697.296 167615.883 -36791 167664.117 -36791 168116.481 -36701.02 168157.729 -36742.268 168157.732 -36742.27 170370.54 -38955.079 170370.54 -40166.001 168791.082 -38586.544 168801.413 -38571.083 168895.117 -38100 168801.413 -37628.917 168534.565 -37229.552 168135.2 -36962.704 167664.117 -36869 167615.883 -36869 167144.8 -36962.704 166745.435 -37229.552 166478.587 -37628.917 166384.883 -38100 166478.587 -38571.083 166745.435 -38970.448 167144.8 -39237.296 167615.883 -39331 167664.117 -39331 168116.481 -39241.019 170014.93 -41139.469 170014.93 -42350.391 168791.082 -41126.544 168801.413 -41111.083 168895.117 -40640 168801.413 -40168.917 168534.565 -39769.552 168135.2 -39502.704 167664.117 -39409 167615.883 -39409 167144.8 -39502.704 166745.435 -39769.552 166478.587 -40168.917 166384.883 -40640 166478.587 -41111.083 166745.435 -41510.448 167144.8 -41777.296 167615.883 -41871 167664.117 -41871 168116.481 -41781.019 169659.32 -43323.859 169659.32 -44534.781 168791.082 -43666.544 168801.413 -43651.083 168895.117 -43180 168801.413 -42708.917 168534.565 -42309.552 168135.2 -42042.704 167664.117 -41949 167615.883 -41949 167144.8 -42042.704 166745.435 -42309.552 166478.587 -42708.917 166384.883 -43180 166478.587 -43651.083 166745.435 -44050.448 167144.8 -44317.296 167615.883 -44411 167664.117 -44411 168116.481 -44321.019 169303.709 -45508.248 169303.709 -46454.989 168840.964 -45992.244 168895.117 -45720 168801.413 -45248.917 168534.565 -44849.552 168135.2 -44582.704 167664.117 -44489 167615.883 -44489 167144.8 -44582.704 166745.435 -44849.552 166478.587 -45248.917 166384.883 -45720 166478.587 -46191.083 166745.435 -46590.448 167144.8 -46857.296 167615.883 -46951 167664.117 -46951 168135.2 -46857.296 168280.112 -46760.468 171511.912 -49992.269 171634.605 -50074.25 171664.359 -50094.131 171844.182 -50129.9 172051.536 -50129.9 172051.536 -50160 172070.649 -50256.09 172059 -50284.214 172059 -50314.75 172137.884 -50393.634 172165.314 -50434.686 172201.992 -50459.193 172117.004 -50544.18 172114.836 -50549.414 172059 -50605.25 172059 -50635.786 172069.03 -50660 172059 -50684.214 172059 -50764.75 172154.25 -50860 172201.185 -50860 172224.181 -50882.996 172364.215 -50941 172617.75 -50941 172698.75 -50860 172713 -50860 172713 -50813 172967 -50813 172967 -50860 172981.25 -50860 173062.25 -50941 173315.785 -50941 173455.819 -50882.996 173478.815 -50860 173525.75 -50860 173614.878 -50770.872 173614.93 -50770.894 173856.012 -50771.105 174078.823 -50679.041 174249.442 -50508.719 174341.894 -50286.07 174342.105 -50044.988 174250.041 -49822.177 174148.513 -49720.472 174249.442 -49619.719 174341.894 -49397.07 174342.105 -49155.988 174261.792 -48961.616 174351.857 -48961.616 174371.427 -49060 174351.536 -49160 174351.536 -49360 174370.649 -49456.09 174359 -49484.214 174359 -49514.75 174437.884 -49593.634 174465.314 -49634.686 174501.992 -49659.193 174417.004 -49744.18 174414.836 -49749.414 174359 -49805.25 174359 -49835.786 174369.03 -49860 174359 -49884.214 174359 -49914.75 174414.836 -49970.586 174417.004 -49975.82 174501.185 -50060 174417.004 -50144.18 174414.836 -50149.414 174359 -50205.25 174359 -50235.786 174369.03 -50260 174359 -50284.214 174359 -50314.75 174414.836 -50370.586 174417.004 -50375.82 174501.185 -50460 174417.004 -50544.18 174414.836 -50549.414 174359 -50605.25 174359 -50635.786 174369.03 -50660 174359 -50684.214 174359 -50764.75 174454.25 -50860 174501.185 -50860 174524.181 -50882.996 174664.215 -50941 174917.75 -50941 174998.75 -50860 175013 -50860 175013 -50474.25 174998.75 -50460 175013 -50445.75 175013 -50074.25 174998.75 -50060 175013 -50045.75 175013 -49960 175267 -49960 175267 -50045.75 175281.25 -50060 175267 -50074.25 175267 -50445.75 175281.25 -50460 175267 -50474.25 175267 -50860 175281.25 -50860 175362.25 -50941 175615.785 -50941 175755.819 -50882.996 175778.815 -50860 175825.75 -50860 175885.75 -50800 179084.883 -50800 179178.587 -51271.083 179445.435 -51670.448 179844.8 -51937.296 180315.883 -52031 180364.117 -52031 180835.2 -51937.296 181234.565 -51670.448 181501.413 -51271.083 181595.117 -50800 181501.413 -50328.917 181234.565 -49929.552 180835.2 -49662.704 180364.117 -49569 180315.883 -49569 179844.8 -49662.704 179445.435 -49929.552 179178.587 -50328.917 179084.883 -50800 175885.75 -50800 175921 -50764.75 175921 -50684.214 175910.97 -50660 175921 -50635.786 175921 -50605.25 175865.164 -50549.414 175862.996 -50544.18 175778.815 -50460 175862.996 -50375.82 175865.164 -50370.586 175921 -50314.75 175921 -50284.214 175910.97 -50260 175921 -50235.786 175921 -50205.25 175865.164 -50149.414 175862.996 -50144.18 175778.815 -50060 175862.996 -49975.82 175865.164 -49970.586 175921 -49914.75 175921 -49884.214 175910.97 -49860 175921 -49835.786 175921 -49805.25 175902.752 -49787.002 175921 -49787.002 175921 -49729.9 178540 -49729.9 178660.328 -49705.965 178820.012 -49706.105 179042.823 -49614.041 179213.442 -49443.719 179305.894 -49221.07 179306.105 -48979.988 179243.239 -48827.841 179445.435 -49130.448 179844.8 -49397.296 180315.883 -49491 180364.117 -49491 180835.2 -49397.296 181234.565 -49130.448 181501.413 -48731.083 181595.117 -48260 181501.413 -47788.917 181234.565 -47389.552 180835.2 -47122.704 180364.117 -47029 180315.883 -47029 179844.8 -47122.704 179445.435 -47389.552 179289.444 -47623.009 179124 -47590.1 175928.464 -47590.1 175928.464 -47560 175909.351 -47463.91 175921 -47435.786 175921 -47405.25 175842.116 -47326.366 175814.686 -47285.314 175778.008 -47260.807 175862.996 -47175.82 175865.164 -47170.586 175921 -47114.75 175921 -47084.214 175910.97 -47060 175921 -47035.786 175921 -47005.25 175902.752 -46987.002 175921 -46987.002 175921 -46929.9 176806 -46929.9 176985.823 -46894.131 177138.269 -46792.269 178132.269 -45798.27 178184.567 -45720 179084.883 -45720 179178.587 -46191.083 179445.435 -46590.448 179844.8 -46857.296 180315.883 -46951 180364.117 -46951 180835.2 -46857.296 181234.565 -46590.448 181501.413 -46191.083 181595.117 -45720 181501.413 -45248.917 181234.565 -44849.552 180835.2 -44582.704 180364.117 -44489 180315.883 -44489 179844.8 -44582.704 179445.435 -44849.552 179178.587 -45248.917 179084.883 -45720 178184.567 -45720 178234.131 -45645.823 178245.215 -45590.1 178269.9 -45466 178269.9 -43180 179084.883 -43180 179178.587 -43651.083 179445.435 -44050.448 179844.8 -44317.296 180315.883 -44411 180364.117 -44411 180835.2 -44317.296 181234.565 -44050.448 181501.413 -43651.083 181595.117 -43180 181501.413 -42708.917 181234.565 -42309.552 180835.2 -42042.704 180364.117 -41949 180315.883 -41949 179844.8 -42042.704 179445.435 -42309.552 179178.587 -42708.917 179084.883 -43180 178269.9 -43180 178269.9 -40640 179084.883 -40640 179178.587 -41111.083 179445.435 -41510.448 179844.8 -41777.296 180315.883 -41871 180364.117 -41871 180835.2 -41777.296 181234.565 -41510.448 181501.413 -41111.083 181595.117 -40640 181501.413 -40168.917 181234.565 -39769.552 180835.2 -39502.704 180364.117 -39409 180315.883 -39409 179844.8 -39502.704 179445.435 -39769.552 179178.587 -40168.917 179084.883 -40640 178269.9 -40640 178269.9 -38294.638 178464.538 -38100 179084.883 -38100 179178.587 -38571.083 179445.435 -38970.448 179844.8 -39237.296 180315.883 -39331 180364.117 -39331 180835.2 -39237.296 181234.565 -38970.448 181501.413 -38571.083 181595.117 -38100 181501.413 -37628.917 181234.565 -37229.552 180835.2 -36962.704 180364.117 -36869 180315.883 -36869 179844.8 -36962.704 179445.435 -37229.552 179178.587 -37628.917 179084.883 -38100 178464.538 -38100 179822.27 -36742.269 179822.272 -36742.266 179863.519 -36701.019 180315.883 -36791 180364.117 -36791 180835.2 -36697.296 181234.565 -36430.448 181501.413 -36031.083 181595.117 -35560 181501.413 -35088.917 181234.565 -34689.552 180835.2 -34422.704 180364.117 -34329 180315.883 -34329 179844.8 -34422.704 179445.435 -34689.552 179178.587 -35088.917 179084.883 -35560 179178.587 -36031.083 179188.918 -36046.544 179157.734 -36077.728 179157.731 -36077.73 177467.731 -37767.731 177365.869 -37920.177 177330.1 -38100 177330.1 -45271.361 176611.362 -45990.1 175928.464 -45990.1 175928.464 -45960 175909.351 -45863.91 175921 -45835.786 175921 -45755.25 175825.75 -45660 175776.801 -45660 175688.659 -45601.106 175540 -45571.536 174993 -45571.536 174993 -45460 175013 -45460 175013 -45074.25 175267 -45074.25 175267 -45460 175825.75 -45460 175921 -45364.75 175921 -45284.214 175862.996 -45144.18 175755.819 -45037.004 175615.785 -44979 175362.25 -44979 175267 -45074.25 175013 -45074.25 174917.75 -44979 174664.215 -44979 174524.181 -45037.004 174498 -45063.185 174498 -42781 174480.911 -42695.089 174459.331 -42586.596 174349.21 -42421.79 173940.489 -42013.069 173992.901 -41934.629 174017.004 -41992.819 174124.18 -42099.996 174264.214 -42158 174517.75 -42158 174613 -42062.75 174613 -41529 174867 -41529 174867 -42062.75 174962.25 -42158 175215.786 -42158 175355.82 -42099.996 175462.996 -41992.819 175521 -41852.785 175521 -41624.25 175425.75 -41529 174867 -41529 174613 -41529 174593 -41529 174593 -41275 174613 -41275 174613 -40741.25 174867 -40741.25 174867 -41275 175425.75 -41275 175521 -41179.75 175521 -40951.215 175462.996 -40811.181 175355.82 -40704.004 175215.786 -40646 174962.25 -40646 174867 -40741.25 174613 -40741.25 174517.75 -40646 174264.214 -40646 174124.18 -40704.004 174017.004 -40811.181 173992.901 -40869.371 173914.686 -40752.314 173788.659 -40668.106 173748 -40660.018 173748 -39226.42 179102.015 -33872.406 179131.106 -34018.659 179215.314 -34144.686 179341.341 -34228.894 179490 -34258.464 181190 -34258.464 181338.659 -34228.894 181464.686 -34144.686 181548.894 -34018.659 181578.464 -33870 181578.464 -32170 181548.894 -32021.341 181464.686 -31895.314 181338.659 -31811.106 181190 -31781.536 179490 -31781.536 179341.341 -31811.106 179215.314 -31895.314 179131.106 -32021.341 179101.536 -32170 179101.536 -32538.746 179041.597 -32550.669 178876.79 -32660.789 172880.79 -38656.79 172770.669 -38821.597 172732 -39016 172732 -40660.018 172691.341 -40668.106 172565.314 -40752.314 172481.106 -40878.341 172451.536 -41027 172451.536 -41777 172481.106 -41925.659 172565.314 -42051.686 172691.341 -42135.894 172755.399 -42148.636 172770.669 -42225.403 172880.79 -42390.21 173482 -42991.42 173482 -45063.185 173455.819 -45037.004 173315.785 -44979 173062.25 -44979 172967 -45074.25 172967 -45460 172987 -45460 172987 -45571.536 172693 -45571.536 172693 -45460 172713 -45460 172713 -45074.25 172617.75 -44979 172364.215 -44979 172224.181 -45037.004 172117.004 -45144.18 172059 -45284.214 172059 -45364.75 172127.248 -45432.998 172059 -45432.998 172059 -45537.461 171310.34 -44788.802 171310.34 -38760.44 171274.571 -38580.617 171267.409 -38569.899 171172.71 -38428.171 168822.27 -36077.732 168822.268 -36077.729 168791.083 -36046.544 168801.413 -36031.083 168895.117 -35560 168801.413 -35088.917 168534.565 -34689.552 168135.2 -34422.704 167664.117 -34329 167615.883 -34329 167144.8 -34422.704 166745.435 -34689.552 166478.587 -35088.917 166384.883 -35560 166191 -35560 166191 -33242.25 166409 -33242.25 166409 -33945.785 166467.004 -34085.819 166574.18 -34192.996 166714.214 -34251 167417.75 -34251 167513 -34155.75 167513 -33147 167767 -33147 167767 -34155.75 167862.25 -34251 168565.786 -34251 168705.82 -34192.996 168812.996 -34085.819 168871 -33945.785 168871 -33242.25 168775.75 -33147 167767 -33147 167513 -33147 166504.25 -33147 166409 -33242.25 166191 -33242.25 166191 -32429.912 166257.774 -32094.215 166409 -32094.215 166409 -32797.75 166504.25 -32893 167513 -32893 167513 -31884.25 167767 -31884.25 167767 -32893 168775.75 -32893 168871 -32797.75 168871 -32094.215 168812.996 -31954.181 168705.82 -31847.004 168565.786 -31789 167862.25 -31789 167767 -31884.25 167513 -31884.25 167417.75 -31789 166714.214 -31789 166574.18 -31847.004 166467.004 -31954.181 166409 -32094.215 166257.774 -32094.215 166261.216 -32076.914 166435.732 -31815.732 166696.915 -31641.215 167049.911 -31571 180930.088 -31571 181283.086 -31641.216 181283.086 -31641.216"/><path d="M 181283.086 -31641.216 181544.268 -31815.732 181718.785 -32076.915 181789 -32429.911 181789 -51390.089 181718.785 -51743.085 181544.268 -52004.268 181283.086 -52178.784 180930.088 -52249 167049.911 -52249 166696.915 -52178.785 166435.732 -52004.268 166261.216 -51743.086 166191 -51390.088 166191 -50800 166384.883 -50800 166478.587 -51271.083 166745.435 -51670.448 167144.8 -51937.296 167615.883 -52031 167664.117 -52031 168135.2 -51937.296 168534.565 -51670.448 168801.413 -51271.083 168824.453 -51155.25 172059 -51155.25 172059 -51235.786 172117.004 -51375.82 172224.181 -51482.996 172364.215 -51541 172617.75 -51541 172713 -51445.75 172713 -51060 172967 -51060 172967 -51445.75 173062.25 -51541 173315.785 -51541 173455.819 -51482.996 173562.996 -51375.82 173621 -51235.786 173621 -51155.25 174359 -51155.25 174359 -51235.786 174417.004 -51375.82 174524.181 -51482.996 174664.215 -51541 174917.75 -51541 175013 -51445.75 175013 -51060 175267 -51060 175267 -51445.75 175362.25 -51541 175615.785 -51541 175755.819 -51482.996 175862.996 -51375.82 175921 -51235.786 175921 -51155.25 175825.75 -51060 175267 -51060 175013 -51060 174454.25 -51060 174359 -51155.25 173621 -51155.25 173525.75 -51060 172967 -51060 172713 -51060 172154.25 -51060 172059 -51155.25 168824.453 -51155.25 168895.117 -50800 168801.413 -50328.917 168534.565 -49929.552 168135.2 -49662.704 167664.117 -49569 167615.883 -49569 167144.8 -49662.704 166745.435 -49929.552 166478.587 -50328.917 166384.883 -50800 166191 -50800 166191 -48260 166384.883 -48260 166478.587 -48731.083 166745.435 -49130.448 167144.8 -49397.296 167615.883 -49491 167664.117 -49491 168135.2 -49397.296 168534.565 -49130.448 168801.413 -48731.083 168895.117 -48260 168801.413 -47788.917 168534.565 -47389.552 168135.2 -47122.704 167664.117 -47029 167615.883 -47029 167144.8 -47122.704 166745.435 -47389.552 166478.587 -47788.917 166384.883 -48260 166191 -48260 166191 -35560 166384.883 -35560 166478.587 -36031.083 166745.435 -36430.448 167144.8 -36697.296 167615.883 -36791 167664.117 -36791 168116.481 -36701.02 168157.729 -36742.268 168157.732 -36742.27 170370.54 -38955.079 170370.54 -40166.001 168791.082 -38586.544 168801.413 -38571.083 168895.117 -38100 168801.413 -37628.917 168534.565 -37229.552 168135.2 -36962.704 167664.117 -36869 167615.883 -36869 167144.8 -36962.704 166745.435 -37229.552 166478.587 -37628.917 166384.883 -38100 166478.587 -38571.083 166745.435 -38970.448 167144.8 -39237.296 167615.883 -39331 167664.117 -39331 168116.481 -39241.019 170014.93 -41139.469 170014.93 -42350.391 168791.082 -41126.544 168801.413 -41111.083 168895.117 -40640 168801.413 -40168.917 168534.565 -39769.552 168135.2 -39502.704 167664.117 -39409 167615.883 -39409 167144.8 -39502.704 166745.435 -39769.552 166478.587 -40168.917 166384.883 -40640 166478.587 -41111.083 166745.435 -41510.448 167144.8 -41777.296 167615.883 -41871 167664.117 -41871 168116.481 -41781.019 169659.32 -43323.859 169659.32 -44534.781 168791.082 -43666.544 168801.413 -43651.083 168895.117 -43180 168801.413 -42708.917 168534.565 -42309.552 168135.2 -42042.704 167664.117 -41949 167615.883 -41949 167144.8 -42042.704 166745.435 -42309.552 166478.587 -42708.917 166384.883 -43180 166478.587 -43651.083 166745.435 -44050.448 167144.8 -44317.296 167615.883 -44411 167664.117 -44411 168116.481 -44321.019 169303.709 -45508.248 169303.709 -46454.989 168840.964 -45992.244 168895.117 -45720 168801.413 -45248.917 168534.565 -44849.552 168135.2 -44582.704 167664.117 -44489 167615.883 -44489 167144.8 -44582.704 166745.435 -44849.552 166478.587 -45248.917 166384.883 -45720 166478.587 -46191.083 166745.435 -46590.448 167144.8 -46857.296 167615.883 -46951 167664.117 -46951 168135.2 -46857.296 168280.112 -46760.468 171511.912 -49992.269 171634.605 -50074.25 171664.359 -50094.131 171844.182 -50129.9 172051.536 -50129.9 172051.536 -50160 172070.649 -50256.09 172059 -50284.214 172059 -50314.75 172137.884 -50393.634 172165.314 -50434.686 172201.992 -50459.193 172117.004 -50544.18 172114.836 -50549.414 172059 -50605.25 172059 -50635.786 172069.03 -50660 172059 -50684.214 172059 -50764.75 172154.25 -50860 172201.185 -50860 172224.181 -50882.996 172364.215 -50941 172617.75 -50941 172698.75 -50860 172713 -50860 172713 -50813 172967 -50813 172967 -50860 172981.25 -50860 173062.25 -50941 173315.785 -50941 173455.819 -50882.996 173478.815 -50860 173525.75 -50860 173614.878 -50770.872 173614.93 -50770.894 173856.012 -50771.105 174078.823 -50679.041 174249.442 -50508.719 174341.894 -50286.07 174342.105 -50044.988 174250.041 -49822.177 174148.513 -49720.472 174249.442 -49619.719 174341.894 -49397.07 174342.105 -49155.988 174261.792 -48961.616 174351.857 -48961.616 174371.427 -49060 174351.536 -49160 174351.536 -49360 174370.649 -49456.09 174359 -49484.214 174359 -49514.75 174437.884 -49593.634 174465.314 -49634.686 174501.992 -49659.193 174417.004 -49744.18 174414.836 -49749.414 174359 -49805.25 174359 -49835.786 174369.03 -49860 174359 -49884.214 174359 -49914.75 174414.836 -49970.586 174417.004 -49975.82 174501.185 -50060 174417.004 -50144.18 174414.836 -50149.414 174359 -50205.25 174359 -50235.786 174369.03 -50260 174359 -50284.214 174359 -50314.75 174414.836 -50370.586 174417.004 -50375.82 174501.185 -50460 174417.004 -50544.18 174414.836 -50549.414 174359 -50605.25 174359 -50635.786 174369.03 -50660 174359 -50684.214 174359 -50764.75 174454.25 -50860 174501.185 -50860 174524.181 -50882.996 174664.215 -50941 174917.75 -50941 174998.75 -50860 175013 -50860 175013 -50474.25 174998.75 -50460 175013 -50445.75 175013 -50074.25 174998.75 -50060 175013 -50045.75 175013 -49960 175267 -49960 175267 -50045.75 175281.25 -50060 175267 -50074.25 175267 -50445.75 175281.25 -50460 175267 -50474.25 175267 -50860 175281.25 -50860 175362.25 -50941 175615.785 -50941 175755.819 -50882.996 175778.815 -50860 175825.75 -50860 175885.75 -50800 179084.883 -50800 179178.587 -51271.083 179445.435 -51670.448 179844.8 -51937.296 180315.883 -52031 180364.117 -52031 180835.2 -51937.296 181234.565 -51670.448 181501.413 -51271.083 181595.117 -50800 181501.413 -50328.917 181234.565 -49929.552 180835.2 -49662.704 180364.117 -49569 180315.883 -49569 179844.8 -49662.704 179445.435 -49929.552 179178.587 -50328.917 179084.883 -50800 175885.75 -50800 175921 -50764.75 175921 -50684.214 175910.97 -50660 175921 -50635.786 175921 -50605.25 175865.164 -50549.414 175862.996 -50544.18 175778.815 -50460 175862.996 -50375.82 175865.164 -50370.586 175921 -50314.75 175921 -50284.214 175910.97 -50260 175921 -50235.786 175921 -50205.25 175865.164 -50149.414 175862.996 -50144.18 175778.815 -50060 175862.996 -49975.82 175865.164 -49970.586 175921 -49914.75 175921 -49884.214 175910.97 -49860 175921 -49835.786 175921 -49805.25 175902.752 -49787.002 175921 -49787.002 175921 -49729.9 178540 -49729.9 178660.328 -49705.965 178820.012 -49706.105 179042.823 -49614.041 179213.442 -49443.719 179305.894 -49221.07 179306.105 -48979.988 179243.239 -48827.841 179445.435 -49130.448 179844.8 -49397.296 180315.883 -49491 180364.117 -49491 180835.2 -49397.296 181234.565 -49130.448 181501.413 -48731.083 181595.117 -48260 181501.413 -47788.917 181234.565 -47389.552 180835.2 -47122.704 180364.117 -47029 180315.883 -47029 179844.8 -47122.704 179445.435 -47389.552 179289.444 -47623.009 179124 -47590.1 175928.464 -47590.1 175928.464 -47560 175909.351 -47463.91 175921 -47435.786 175921 -47405.25 175842.116 -47326.366 175814.686 -47285.314 175778.008 -47260.807 175862.996 -47175.82 175865.164 -47170.586 175921 -47114.75 175921 -47084.214 175910.97 -47060 175921 -47035.786 175921 -47005.25 175902.752 -46987.002 175921 -46987.002 175921 -46929.9 176806 -46929.9 176985.823 -46894.131 177138.269 -46792.269 178132.269 -45798.27 178184.567 -45720 179084.883 -45720 179178.587 -46191.083 179445.435 -46590.448 179844.8 -46857.296 180315.883 -46951 180364.117 -46951 180835.2 -46857.296 181234.565 -46590.448 181501.413 -46191.083 181595.117 -45720 181501.413 -45248.917 181234.565 -44849.552 180835.2 -44582.704 180364.117 -44489 180315.883 -44489 179844.8 -44582.704 179445.435 -44849.552 179178.587 -45248.917 179084.883 -45720 178184.567 -45720 178234.131 -45645.823 178245.215 -45590.1 178269.9 -45466 178269.9 -43180 179084.883 -43180 179178.587 -43651.083 179445.435 -44050.448 179844.8 -44317.296 180315.883 -44411 180364.117 -44411 180835.2 -44317.296 181234.565 -44050.448 181501.413 -43651.083 181595.117 -43180 181501.413 -42708.917 181234.565 -42309.552 180835.2 -42042.704 180364.117 -41949 180315.883 -41949 179844.8 -42042.704 179445.435 -42309.552 179178.587 -42708.917 179084.883 -43180 178269.9 -43180 178269.9 -40640 179084.883 -40640 179178.587 -41111.083 179445.435 -41510.448 179844.8 -41777.296 180315.883 -41871 180364.117 -41871 180835.2 -41777.296 181234.565 -41510.448 181501.413 -41111.083 181595.117 -40640 181501.413 -40168.917 181234.565 -39769.552 180835.2 -39502.704 180364.117 -39409 180315.883 -39409 179844.8 -39502.704 179445.435 -39769.552 179178.587 -40168.917 179084.883 -40640 178269.9 -40640 178269.9 -38294.638 178464.538 -38100 179084.883 -38100 179178.587 -38571.083 179445.435 -38970.448 179844.8 -39237.296 180315.883 -39331 180364.117 -39331 180835.2 -39237.296 181234.565 -38970.448 181501.413 -38571.083 181595.117 -38100 181501.413 -37628.917 181234.565 -37229.552 180835.2 -36962.704 180364.117 -36869 180315.883 -36869 179844.8 -36962.704 179445.435 -37229.552 179178.587 -37628.917 179084.883 -38100 178464.538 -38100 179822.27 -36742.269 179822.272 -36742.266 179863.519 -36701.019 180315.883 -36791 180364.117 -36791 180835.2 -36697.296 181234.565 -36430.448 181501.413 -36031.083 181595.117 -35560 181501.413 -35088.917 181234.565 -34689.552 180835.2 -34422.704 180364.117 -34329 180315.883 -34329 179844.8 -34422.704 179445.435 -34689.552 179178.587 -35088.917 179084.883 -35560 179178.587 -36031.083 179188.918 -36046.544 179157.734 -36077.728 179157.731 -36077.73 177467.731 -37767.731 177365.869 -37920.177 177330.1 -38100 177330.1 -45271.361 176611.362 -45990.1 175928.464 -45990.1 175928.464 -45960 175909.351 -45863.91 175921 -45835.786 175921 -45755.25 175825.75 -45660 175776.801 -45660 175688.659 -45601.106 175540 -45571.536 174993 -45571.536 174993 -45460 175013 -45460 175013 -45074.25 175267 -45074.25 175267 -45460 175825.75 -45460 175921 -45364.75 175921 -45284.214 175862.996 -45144.18 175755.819 -45037.004 175615.785 -44979 175362.25 -44979 175267 -45074.25 175013 -45074.25 174917.75 -44979 174664.215 -44979 174524.181 -45037.004 174498 -45063.185 174498 -42781 174480.911 -42695.089 174459.331 -42586.596 174349.21 -42421.79 173940.489 -42013.069 173992.901 -41934.629 174017.004 -41992.819 174124.18 -42099.996 174264.214 -42158 174517.75 -42158 174613 -42062.75 174613 -41529 174867 -41529 174867 -42062.75 174962.25 -42158 175215.786 -42158 175355.82 -42099.996 175462.996 -41992.819 175521 -41852.785 175521 -41624.25 175425.75 -41529 174867 -41529 174613 -41529 174593 -41529 174593 -41275 174613 -41275 174613 -40741.25 174867 -40741.25 174867 -41275 175425.75 -41275 175521 -41179.75 175521 -40951.215 175462.996 -40811.181 175355.82 -40704.004 175215.786 -40646 174962.25 -40646 174867 -40741.25 174613 -40741.25 174517.75 -40646 174264.214 -40646 174124.18 -40704.004 174017.004 -40811.181 173992.901 -40869.371 173914.686 -40752.314 173788.659 -40668.106 173748 -40660.018 173748 -39226.42 179102.015 -33872.406 179131.106 -34018.659 179215.314 -34144.686 179341.341 -34228.894 179490 -34258.464 181190 -34258.464 181338.659 -34228.894 181464.686 -34144.686 181548.894 -34018.659 181578.464 -33870 181578.464 -32170 181548.894 -32021.341 181464.686 -31895.314 181338.659 -31811.106 181190 -31781.536 179490 -31781.536 179341.341 -31811.106 179215.314 -31895.314 179131.106 -32021.341 179101.536 -32170 179101.536 -32538.746 179041.597 -32550.669 178876.79 -32660.789 172880.79 -38656.79 172770.669 -38821.597 172732 -39016 172732 -40660.018 172691.341 -40668.106 172565.314 -40752.314 172481.106 -40878.341 172451.536 -41027 172451.536 -41777 172481.106 -41925.659 172565.314 -42051.686 172691.341 -42135.894 172755.399 -42148.636 172770.669 -42225.403 172880.79 -42390.21 173482 -42991.42 173482 -45063.185 173455.819 -45037.004 173315.785 -44979 173062.25 -44979 172967 -45074.25 172967 -45460 172987 -45460 172987 -45571.536 172693 -45571.536 172693 -45460 172713 -45460 172713 -45074.25 172617.75 -44979 172364.215 -44979 172224.181 -45037.004 172117.004 -45144.18 172059 -45284.214 172059 -45364.75 172127.248 -45432.998 172059 -45432.998 172059 -45537.461 171310.34 -44788.802 171310.34 -38760.44 171274.571 -38580.617 171267.409 -38569.899 171172.71 -38428.171 168822.27 -36077.732 168822.268 -36077.729 168791.083 -36046.544 168801.413 -36031.083 168895.117 -35560 168801.413 -35088.917 168534.565 -34689.552 168135.2 -34422.704 167664.117 -34329 167615.883 -34329 167144.8 -34422.704 166745.435 -34689.552 166478.587 -35088.917 166384.883 -35560 166191 -35560 166191 -33242.25 166409 -33242.25 166409 -33945.785 166467.004 -34085.819 166574.18 -34192.996 166714.214 -34251 167417.75 -34251 167513 -34155.75 167513 -33147 167767 -33147 167767 -34155.75 167862.25 -34251 168565.786 -34251 168705.82 -34192.996 168812.996 -34085.819 168871 -33945.785 168871 -33242.25 168775.75 -33147 167767 -33147 167513 -33147 166504.25 -33147 166409 -33242.25 166191 -33242.25 166191 -32429.912 166257.774 -32094.215 166409 -32094.215 166409 -32797.75 166504.25 -32893 167513 -32893 167513 -31884.25 167767 -31884.25 167767 -32893 168775.75 -32893 168871 -32797.75 168871 -32094.215 168812.996 -31954.181 168705.82 -31847.004 168565.786 -31789 167862.25 -31789 167767 -31884.25 167513 -31884.25 167417.75 -31789 166714.214 -31789 166574.18 -31847.004 166467.004 -31954.181 166409 -32094.215 166257.774 -32094.215 166261.216 -32076.914 166435.732 -31815.732 166696.915 -31641.215 167049.911 -31571 180930.088 -31571 181283.086 -31641.216" fill="none" stroke-width="254"/><path d="M 171584.731 -46392.27 171737.177 -46494.131 171917 -46529.9 172051.536 -46529.9 172051.536 -46560 172070.649 -46656.09 172059 -46684.214 172059 -46714.75 172137.884 -46793.634 172165.314 -46834.686 172203.199 -46860 172165.314 -46885.314 172137.884 -46926.366 172059 -47005.25 172059 -47035.786 172070.649 -47063.91 172051.536 -47160 172051.536 -47360 172070.649 -47456.09 172059 -47484.214 172059 -47514.75 172077.248 -47532.998 172059 -47532.998 172059 -47564.369 170954.73 -46460.1 170954.73 -45762.268 171584.731 -46392.27 171584.731 -46392.27"/><path d="M 171584.731 -46392.27 171737.177 -46494.131 171917 -46529.9 172051.536 -46529.9 172051.536 -46560 172070.649 -46656.09 172059 -46684.214 172059 -46714.75 172137.884 -46793.634 172165.314 -46834.686 172203.199 -46860 172165.314 -46885.314 172137.884 -46926.366 172059 -47005.25 172059 -47035.786 172070.649 -47063.91 172051.536 -47160 172051.536 -47360 172070.649 -47456.09 172059 -47484.214 172059 -47514.75 172077.248 -47532.998 172059 -47532.998 172059 -47564.369 170954.73 -46460.1 170954.73 -45762.268 171584.731 -46392.27" fill="none" stroke-width="254"/></g><g id="pcb-stackup_top_sm"><use xlink:href="#zl23NpDUuwXL_pad-10" x="180340" y="-33020"/><use xlink:href="#zl23NpDUuwXL_pad-11" x="180340" y="-35560"/><use xlink:href="#zl23NpDUuwXL_pad-11" x="180340" y="-38100"/><use xlink:href="#zl23NpDUuwXL_pad-11" x="180340" y="-40640"/><use xlink:href="#zl23NpDUuwXL_pad-11" x="180340" y="-43180"/><use xlink:href="#zl23NpDUuwXL_pad-11" x="180340" y="-45720"/><use xlink:href="#zl23NpDUuwXL_pad-11" x="180340" y="-48260"/><use xlink:href="#zl23NpDUuwXL_pad-11" x="180340" y="-50800"/><use xlink:href="#zl23NpDUuwXL_pad-11" x="167640" y="-50800"/><use xlink:href="#zl23NpDUuwXL_pad-11" x="167640" y="-48260"/><use xlink:href="#zl23NpDUuwXL_pad-11" x="167640" y="-45720"/><use xlink:href="#zl23NpDUuwXL_pad-11" x="167640" y="-43180"/><use xlink:href="#zl23NpDUuwXL_pad-11" x="167640" y="-40640"/><use xlink:href="#zl23NpDUuwXL_pad-11" x="167640" y="-38100"/><use xlink:href="#zl23NpDUuwXL_pad-11" x="167640" y="-35560"/><use xlink:href="#zl23NpDUuwXL_pad-10" x="167640" y="-33020"/><use xlink:href="#zl23NpDUuwXL_pad-12" x="173240" y="-41402"/><use xlink:href="#zl23NpDUuwXL_pad-12" x="174740" y="-41402"/><use xlink:href="#zl23NpDUuwXL_pad-13" x="175140" y="-46060"/><use xlink:href="#zl23NpDUuwXL_pad-13" x="175140" y="-46460"/><use xlink:href="#zl23NpDUuwXL_pad-13" x="175140" y="-46860"/><use xlink:href="#zl23NpDUuwXL_pad-13" x="175140" y="-47260"/><use xlink:href="#zl23NpDUuwXL_pad-13" x="175140" y="-47660"/><use xlink:href="#zl23NpDUuwXL_pad-13" x="175140" y="-48060"/><use xlink:href="#zl23NpDUuwXL_pad-13" x="175140" y="-48460"/><use xlink:href="#zl23NpDUuwXL_pad-13" x="175140" y="-48860"/><use xlink:href="#zl23NpDUuwXL_pad-13" x="175140" y="-49260"/><use xlink:href="#zl23NpDUuwXL_pad-13" x="175140" y="-49660"/><use xlink:href="#zl23NpDUuwXL_pad-13" x="175140" y="-50060"/><use xlink:href="#zl23NpDUuwXL_pad-13" x="175140" y="-50460"/><use xlink:href="#zl23NpDUuwXL_pad-13" x="172840" y="-50460"/><use xlink:href="#zl23NpDUuwXL_pad-13" x="172840" y="-50060"/><use xlink:href="#zl23NpDUuwXL_pad-13" x="172840" y="-49660"/><use xlink:href="#zl23NpDUuwXL_pad-13" x="172840" y="-49260"/><use xlink:href="#zl23NpDUuwXL_pad-13" x="172840" y="-48860"/><use xlink:href="#zl23NpDUuwXL_pad-13" x="172840" y="-48460"/><use xlink:href="#zl23NpDUuwXL_pad-13" x="172840" y="-48060"/><use xlink:href="#zl23NpDUuwXL_pad-13" x="172840" y="-47660"/><use xlink:href="#zl23NpDUuwXL_pad-13" x="172840" y="-47260"/><use xlink:href="#zl23NpDUuwXL_pad-13" x="172840" y="-46860"/><use xlink:href="#zl23NpDUuwXL_pad-13" x="172840" y="-46460"/><use xlink:href="#zl23NpDUuwXL_pad-13" x="172840" y="-46060"/><use xlink:href="#zl23NpDUuwXL_pad-14" x="175140" y="-45560"/><use xlink:href="#zl23NpDUuwXL_pad-14" x="175140" y="-50960"/><use xlink:href="#zl23NpDUuwXL_pad-14" x="172840" y="-50960"/><use xlink:href="#zl23NpDUuwXL_pad-14" x="172840" y="-45560"/></g><g id="pcb-stackup_top_ss"><path d="M 176548.142 -40289.238 176499.761 -40240.857 176451.38 -40095.714 176451.38 -39998.952 176499.761 -39853.809 176596.523 -39757.047 176693.285 -39708.666 176886.809 -39660.285 177031.952 -39660.285 177225.476 -39708.666 177322.238 -39757.047 177419 -39853.809 177467.38 -39998.952 177467.38 -40095.714 177419 -40240.857 177370.619 -40289.238 M 177467.38 -40918.19 177467.38 -41111.714 177419 -41208.476 177322.238 -41305.238 177128.714 -41353.619 176790.047 -41353.619 176596.523 -41305.238 176499.761 -41208.476 176451.38 -41111.714 176451.38 -40918.19 176499.761 -40821.428 176596.523 -40724.666 176790.047 -40676.285 177128.714 -40676.285 177322.238 -40724.666 177419 -40821.428 177467.38 -40918.19 M 176451.38 -42272.857 176451.38 -41789.047 177467.38 -41789.047 M 176499.761 -42563.142 176451.38 -42708.285 176451.38 -42950.19 176499.761 -43046.952 176548.142 -43095.333 176644.904 -43143.714 176741.666 -43143.714 176838.428 -43095.333 176886.809 -43046.952 176935.19 -42950.19 176983.571 -42756.666 177031.952 -42659.904 177080.333 -42611.523 177177.095 -42563.142 177273.857 -42563.142 177370.619 -42611.523 177419 -42659.904 177467.38 -42756.666 177467.38 -42998.571 177419 -43143.714 M 171592.119 -42747.595 171108.309 -43086.261 M 171592.119 -43328.166 170576.119 -43328.166 170576.119 -42941.119 170624.5 -42844.357 170672.88 -42795.976 170769.642 -42747.595 170914.785 -42747.595 171011.547 -42795.976 171059.928 -42844.357 171108.309 -42941.119 171108.309 -43328.166 M 170576.119 -42118.642 170576.119 -41925.119 170624.5 -41828.357 170721.261 -41731.595 170914.785 -41683.214 171253.452 -41683.214 171446.976 -41731.595 171543.738 -41828.357 171592.119 -41925.119 171592.119 -42118.642 171543.738 -42215.404 171446.976 -42312.166 171253.452 -42360.547 170914.785 -42360.547 170721.261 -42312.166 170624.5 -42215.404 170576.119 -42118.642 M 170576.119 -41344.547 171592.119 -41102.642 170866.404 -40909.119 171592.119 -40715.595 170576.119 -40473.69 M 171543.738 -40135.023 171592.119 -39989.88 171592.119 -39747.976 171543.738 -39651.214 171495.357 -39602.833 171398.595 -39554.452 171301.833 -39554.452 171205.071 -39602.833 171156.69 -39651.214 171108.309 -39747.976 171059.928 -39941.5 171011.547 -40038.261 170963.166 -40086.642 170866.404 -40135.023 170769.642 -40135.023 170672.88 -40086.642 170624.5 -40038.261 170576.119 -39941.5 170576.119 -39699.595 170624.5 -39554.452 M 176522.984 -36146.619 176522.984 -35130.619 176861.651 -35856.333 177200.318 -35130.619 177200.318 -36146.619 M 177684.127 -36146.619 177684.127 -35130.619 M 178748.508 -36049.857 178700.127 -36098.238 178554.984 -36146.619 178458.222 -36146.619 178313.08 -36098.238 178216.318 -36001.476 178167.937 -35904.714 178119.556 -35711.19 178119.556 -35566.047 178167.937 -35372.523 178216.318 -35275.761 178313.08 -35179 178458.222 -35130.619 178554.984 -35130.619 178700.127 -35179 178748.508 -35227.38 M 176250.841 -32463.619 176589.508 -33479.619 176928.175 -32463.619 M 177266.841 -33479.619 177266.841 -32463.619 177508.746 -32463.619 177653.889 -32512 177750.651 -32608.761 177799.032 -32705.523 177847.413 -32899.047 177847.413 -33044.19 177799.032 -33237.714 177750.651 -33334.476 177653.889 -33431.238 177508.746 -33479.619 177266.841 -33479.619 M 178282.841 -33479.619 178282.841 -32463.619 178524.746 -32463.619 178669.889 -32512 178766.651 -32608.761 178815.032 -32705.523 178863.413 -32899.047 178863.413 -33044.19 178815.032 -33237.714 178766.651 -33334.476 178669.889 -33431.238 178524.746 -33479.619 178282.841 -33479.619 M 178609.413 -40422.285 178609.413 -41099.619 M 178367.508 -40035.238 178125.603 -40760.952 178754.556 -40760.952 M 178657.794 -37543.619 178173.984 -37543.619 178125.603 -38027.428 178173.984 -37979.047 178270.746 -37930.666 178512.651 -37930.666 178609.413 -37979.047 178657.794 -38027.428 178706.175 -38124.19 178706.175 -38366.095 178657.794 -38462.857 178609.413 -38511.238 178512.651 -38559.619 178270.746 -38559.619 178173.984 -38511.238 178125.603 -38462.857 M 178077.222 -42623.619 178706.175 -42623.619 178367.508 -43010.666 178512.651 -43010.666 178609.413 -43059.047 178657.794 -43107.428 178706.175 -43204.19 178706.175 -43446.095 178657.794 -43542.857 178609.413 -43591.238 178512.651 -43639.619 178222.365 -43639.619 178125.603 -43591.238 178077.222 -43542.857 M 178125.603 -45260.38 178173.984 -45212 178270.746 -45163.619 178512.651 -45163.619 178609.413 -45212 178657.794 -45260.38 178706.175 -45357.142 178706.175 -45453.904 178657.794 -45599.047 178077.222 -46179.619 178706.175 -46179.619 M 178706.175 -48719.619 178125.603 -48719.619 M 178415.889 -48719.619 178415.889 -47703.619 178319.127 -47848.761 178222.365 -47945.523 178125.603 -47993.904 M 169816.175 -51259.619 169235.603 -51259.619 M 169525.889 -51259.619 169525.889 -50243.619 169429.127 -50388.761 169332.365 -50485.523 169235.603 -50533.904 M 169235.603 -47800.38 169283.984 -47752 169380.746 -47703.619 169622.651 -47703.619 169719.413 -47752 169767.794 -47800.38 169816.175 -47897.142 169816.175 -47993.904 169767.794 -48139.047 169187.222 -48719.619 169816.175 -48719.619 M 169187.222 -45163.619 169816.175 -45163.619 169477.508 -45550.666 169622.651 -45550.666 169719.413 -45599.047 169767.794 -45647.428 169816.175 -45744.19 169816.175 -45986.095 169767.794 -46082.857 169719.413 -46131.238 169622.651 -46179.619 169332.365 -46179.619 169235.603 -46131.238 169187.222 -46082.857 M 169719.413 -42962.285 169719.413 -43639.619 M 169477.508 -42575.238 169235.603 -43300.952 169864.556 -43300.952 M 169767.794 -40083.619 169283.984 -40083.619 169235.603 -40567.428 169283.984 -40519.047 169380.746 -40470.666 169622.651 -40470.666 169719.413 -40519.047 169767.794 -40567.428 169816.175 -40664.19 169816.175 -40906.095 169767.794 -41002.857 169719.413 -41051.238 169622.651 -41099.619 169380.746 -41099.619 169283.984 -41051.238 169235.603 -41002.857 M 169719.413 -37543.619 169525.889 -37543.619 169429.127 -37592 169380.746 -37640.38 169283.984 -37785.523 169235.603 -37979.047 169235.603 -38366.095 169283.984 -38462.857 169332.365 -38511.238 169429.127 -38559.619 169622.651 -38559.619 169719.413 -38511.238 169767.794 -38462.857 169816.175 -38366.095 169816.175 -38124.19 169767.794 -38027.428 169719.413 -37979.047 169622.651 -37930.666 169429.127 -37930.666 169332.365 -37979.047 169283.984 -38027.428 169235.603 -38124.19 M 169187.222 -35003.619 169864.556 -35003.619 169429.127 -36019.619 M 169816.175 -32512 169719.413 -32463.619 169574.27 -32463.619 169429.127 -32512 169332.365 -32608.761 169283.984 -32705.523 169235.603 -32899.047 169235.603 -33044.19 169283.984 -33237.714 169332.365 -33334.476 169429.127 -33431.238 169574.27 -33479.619 169671.032 -33479.619 169816.175 -33431.238 169864.556 -33382.857 169864.556 -33044.19 169671.032 -33044.19 M 170299.984 -33479.619 170299.984 -32463.619 170880.556 -33479.619 170880.556 -32463.619 M 171364.365 -33479.619 171364.365 -32463.619 171606.27 -32463.619 171751.413 -32512 171848.175 -32608.761 171896.556 -32705.523 171944.937 -32899.047 171944.937 -33044.19 171896.556 -33237.714 171848.175 -33334.476 171751.413 -33431.238 171606.27 -33479.619 171364.365 -33479.619" fill="none" stroke-width="203.2"/><path d="M 173640 -40802 174340 -40802 M 174340 -42002 173640 -42002" fill="none" stroke-width="120"/><path d="M 175140 -51260 175140 -52060 172840 -52060 172840 -51260 M 172840 -45260 172840 -44460 175140 -44460 175140 -45260 M 175840 -44860 175840 -45160 175440 -45010 175840 -44860" fill="none" stroke-width="150"/></g><g id="pcb-stackup_top_drl1"><use xlink:href="#prg-1EIIk5F6_pad-1" x="170180" y="-49784"/><use xlink:href="#prg-1EIIk5F6_pad-1" x="171450" y="-46482"/><use xlink:href="#prg-1EIIk5F6_pad-1" x="172466" y="-44831"/><use xlink:href="#prg-1EIIk5F6_pad-1" x="173736" y="-49276"/><use xlink:href="#prg-1EIIk5F6_pad-1" x="173736" y="-50165"/><use xlink:href="#prg-1EIIk5F6_pad-1" x="174100" y="-47100"/><use xlink:href="#prg-1EIIk5F6_pad-1" x="174100" y="-48000"/><use xlink:href="#prg-1EIIk5F6_pad-1" x="177038" y="-51054"/><use xlink:href="#prg-1EIIk5F6_pad-1" x="177700" y="-48600"/><use xlink:href="#prg-1EIIk5F6_pad-1" x="178700" y="-49100"/><use xlink:href="#prg-1EIIk5F6_pad-2" x="167640" y="-33020"/><use xlink:href="#prg-1EIIk5F6_pad-2" x="167640" y="-35560"/><use xlink:href="#prg-1EIIk5F6_pad-2" x="167640" y="-38100"/><use xlink:href="#prg-1EIIk5F6_pad-2" x="167640" y="-40640"/><use xlink:href="#prg-1EIIk5F6_pad-2" x="167640" y="-43180"/><use xlink:href="#prg-1EIIk5F6_pad-2" x="167640" y="-45720"/><use xlink:href="#prg-1EIIk5F6_pad-2" x="167640" y="-48260"/><use xlink:href="#prg-1EIIk5F6_pad-2" x="167640" y="-50800"/><use xlink:href="#prg-1EIIk5F6_pad-2" x="180340" y="-33020"/><use xlink:href="#prg-1EIIk5F6_pad-2" x="180340" y="-35560"/><use xlink:href="#prg-1EIIk5F6_pad-2" x="180340" y="-38100"/><use xlink:href="#prg-1EIIk5F6_pad-2" x="180340" y="-40640"/><use xlink:href="#prg-1EIIk5F6_pad-2" x="180340" y="-43180"/><use xlink:href="#prg-1EIIk5F6_pad-2" x="180340" y="-45720"/><use xlink:href="#prg-1EIIk5F6_pad-2" x="180340" y="-48260"/><use xlink:href="#prg-1EIIk5F6_pad-2" x="180340" y="-50800"/></g><clipPath id="pcb-stackup_top_out"><path d="M 167005 -52705 A 1270 1270 0 0 0 165735 -51435 L 165735 -32385 A 1270 1270 0 0 0 167005 -31115 L 180975 -31115 A 1270 1270 0 0 0 182245 -32385 L 182245 -51435 A 1270 1270 0 0 0 180975 -52705 L 167005 -52705" fill="none" stroke-width="150"/></clipPath><mask id="pcb-stackup_top_mech-mask"><g fill="#000" stroke="#000"><rect x="165735" y="-52705" width="16510" height="21590" fill="#fff"/><use xlink:href="#pcb-stackup_top_drl1"/></g></mask><mask id="pcb-stackup_top_cf-mask"><g fill="#fff" stroke="#fff"><use xlink:href="#pcb-stackup_top_sm"/></g></mask><mask id="pcb-stackup_top_sm-mask"><g fill="#000" stroke="#000"><rect x="165735" y="-52705" width="16510" height="21590" fill="#fff"/><use xlink:href="#pcb-stackup_top_sm"/></g></mask></defs><g transform="translate(0,-83820) scale(1,-1)"><g mask="url(#pcb-stackup_top_mech-mask)" clip-path="url(#pcb-stackup_top_out)"><rect x="165735" y="-52705" width="16510" height="21590" fill="currentColor" class="pcb-stackup_fr4"/><use xlink:href="#pcb-stackup_top_cu" fill="currentColor" stroke="currentColor" class="pcb-stackup_cu"/><use xlink:href="#pcb-stackup_top_cu" fill="currentColor" stroke="currentColor" class="pcb-stackup_cf" mask="url(#pcb-stackup_top_cf-mask)"/><g mask="url(#pcb-stackup_top_sm-mask)"><rect x="165735" y="-52705" width="16510" height="21590" fill="currentColor" class="pcb-stackup_sm"/><use xlink:href="#pcb-stackup_top_ss" fill="currentColor" stroke="currentColor" class="pcb-stackup_ss"/></g></g></g></svg>